
<svg width="21px" height="23px" viewBox="0 0 21 23" version="1.1" xmlns="http://www.w3.org/2000/svg" xmlns:xlink="http://www.w3.org/1999/xlink">
    <g id="Page-1" stroke="none" stroke-width="1" fill="none" fill-rule="evenodd">
        <g id="detail" transform="translate(-180.000000, -362.000000)" fill="#FFFFFF">
            <g id="Group-6" transform="translate(0.000000, 65.000000)">
                <g id="Group-7" transform="translate(55.000000, 76.000000)">
                    <g id="Group-48" transform="translate(0.000000, 214.000000)">
                        <g id="Group-3" transform="translate(125.000000, 0.000000)">
                            <g id="follow" transform="translate(0.000000, 7.000000)">
                                <path d="M19.9396761,20.6717549 C19.6786249,20.6717853 19.417549,20.6756489 19.1565968,20.6695037 C19.0759515,20.6675872 19.0556478,20.6991343 19.056143,20.7946883 C19.0592876,21.3970954 19.0579505,21.9995329 19.0576286,22.6019705 C19.0574801,22.900862 18.9793108,22.9966594 18.7336112,22.9983326 C18.5642981,22.9994886 18.3949108,23.0018006 18.2256719,22.9975112 C18.0261014,22.9924612 17.9371612,22.8812097 17.9364927,22.6342173 C17.9348337,22.0231096 17.9342395,21.4120019 17.9375327,20.8009247 C17.9380774,20.7006858 17.9168823,20.6685607 17.8319534,20.669382 C17.3275548,20.6742495 16.8230821,20.6720287 16.3186588,20.6716636 C16.0809073,20.6714811 16.0010543,20.5734021 16.0004353,20.2820247 C16.0000392,20.0869923 15.999643,19.8919599 16.0005592,19.6969274 C16.0017972,19.4363975 16.0902174,19.3250851 16.3025149,19.3242941 C16.7822518,19.3224688 17.2620135,19.3236857 17.7417505,19.3236553 C17.7734936,19.3236553 17.8057319,19.3192746 17.8369055,19.3244462 C17.9171299,19.3378013 17.9380279,19.2961542 17.9375079,19.2004177 C17.934289,18.6066807 17.9357251,18.0129133 17.9362451,17.4191459 C17.9362946,17.3673989 17.9370127,17.3148305 17.9440942,17.264057 C17.9659826,17.107234 18.04331,17.010889 18.1713224,17.0063562 C18.3898101,16.9985683 18.6088177,16.9970472 18.8272064,17.0068429 C18.9770824,17.0135661 19.0565144,17.13726 19.0570839,17.3433659 C19.0586934,17.9284631 19.057703,18.5135604 19.0577525,19.0986576 C19.0577772,19.3236553 19.0577525,19.3236553 19.2439771,19.3236553 C19.720198,19.3236553 20.1964189,19.3232294 20.6726399,19.3238378 C20.9126198,19.324142 20.9990591,19.430009 20.9994305,19.7213559 C20.9996781,19.9207082 21.0007428,20.1200909 20.9991086,20.3194432 C20.9971772,20.5559706 20.9050925,20.6696558 20.7122321,20.6712073 C20.4546969,20.673276 20.1971865,20.6717245 19.9396761,20.6717549 Z" id="Path"></path>
                                <path d="M18.6543886,14.1202881 C17.6136748,13.1856874 16.4384022,12.461546 15.1185303,11.9621631 C15.0771679,11.9465123 15.0275822,11.9400537 14.9970301,11.8984184 C16.6320943,10.6993166 17.6089011,9.12943254 17.7891034,7.13499484 C17.9695521,5.13764329 17.3209962,3.40638499 15.8951774,1.96519176 C13.3045266,-0.653384478 8.89583741,-0.653594753 6.32018552,1.95575927 C4.94847974,3.34540408 4.28547935,5.0090426 4.4030066,6.93276641 C4.52989664,9.00924301 5.51221637,10.6520339 7.22440011,11.9080913 C7.17669317,11.9290892 7.14185999,11.9465424 7.10548692,11.9601504 C6.52693617,12.1764676 5.97003679,12.437424 5.44101012,12.7514309 C3.03191678,14.1813291 1.38080655,16.2003995 0.51090151,18.8190358 C0.166512127,19.8557121 0.0050969228,20.9234495 1.51778698e-05,22.0129959 C-0.00192512201,22.4283273 0.182127015,22.7463895 0.575054895,22.9139219 C0.944298704,23.0713309 1.29749646,23.0112211 1.60209413,22.7469903 C1.83813422,22.5422385 1.91550017,22.2716393 1.91774846,21.9732832 C1.92594086,20.8928689 2.12526908,19.84661 2.53063958,18.8414155 C3.30011054,16.9334326 4.58240816,15.439189 6.38255258,14.3804334 C8.11743487,13.3600689 10.0019365,12.9596373 12.0181328,13.1461849 C13.2251279,13.2578432 14.3613172,13.5982551 15.4307045,14.1530316 C16.1237026,14.5125188 16.7571056,14.9543453 17.3338392,15.4733744 C17.5126248,15.6342679 17.7137393,15.749591 17.9614213,15.7662932 C18.3905067,15.7952517 18.7574406,15.5753297 18.9268942,15.192111 C19.086985,14.8301304 18.9788513,14.4116749 18.6543886,14.1202881 Z M10.9289421,11.2304217 C8.38535146,11.1421645 6.31073037,9.1105675 6.29924251,6.54065587 C6.33081103,3.87161262 8.53774268,1.85563634 11.1219258,1.8690942 C13.8310586,1.88318292 15.9214485,4.04299013 15.9062649,6.57496139 C15.8905884,9.19311708 13.6633605,11.3253177 10.9289421,11.2304217 Z" id="Shape" fill-rule="nonzero"></path>
                            </g>
                        </g>
                    </g>
                </g>
            </g>
        </g>
    </g>
</svg>