<svg width="14px" height="13px" viewBox="0 0 14 13" version="1.1" xmlns="http://www.w3.org/2000/svg" xmlns:xlink="http://www.w3.org/1999/xlink">
    <g id="Page-1" stroke="none" stroke-width="1" fill="none" fill-rule="evenodd">
        <g id="home" transform="translate(-682.000000, -436.000000)" fill="#C4C4C4" fill-rule="nonzero">
            <g id="Group-7" transform="translate(608.000000, 433.000000)">
                <g id="github-brands" transform="translate(74.000000, 3.000000)">
                    <path d="M4.68266129,10.467581 C4.68266129,10.5213436 4.61774194,10.5643537 4.5358871,10.5643537 C4.44274194,10.5724181 4.37782258,10.529408 4.37782258,10.467581 C4.37782258,10.4138184 4.44274194,10.3708083 4.52459677,10.3708083 C4.60927419,10.3627439 4.68266129,10.405754 4.68266129,10.467581 Z M3.80483871,10.3466151 C3.78508065,10.4003777 3.84153226,10.4622047 3.92620968,10.4783335 C3.99959677,10.5052148 4.08427419,10.4783335 4.10120968,10.4245709 C4.11814516,10.3708083 4.06451613,10.3089813 3.97983871,10.2847881 C3.90645161,10.2659712 3.82459677,10.2928525 3.80483871,10.3466151 Z M5.05241935,10.3009169 C4.97056452,10.3197338 4.9141129,10.3708083 4.92258065,10.4326353 C4.93104839,10.4863979 5.00443548,10.5213436 5.0891129,10.5025267 C5.17096774,10.4837098 5.22741935,10.4326353 5.21895161,10.3788727 C5.21048387,10.3277982 5.13427419,10.2928525 5.05241935,10.3009169 Z M6.90967742,0 C2.99475806,0 0,2.83060164 0,6.55903894 C0,9.54017589 1.97016129,12.0912119 4.78427419,12.9890476 C5.14556452,13.0508746 5.27258065,12.8385123 5.27258065,12.6637838 C5.27258065,12.4971197 5.2641129,11.577779 5.2641129,11.0132715 C5.2641129,11.0132715 3.28830645,11.4164911 2.8733871,10.2122086 C2.8733871,10.2122086 2.5516129,9.42996253 2.08870968,9.22835273 C2.08870968,9.22835273 1.44233871,8.80631621 2.13387097,8.8143806 C2.13387097,8.8143806 2.83669355,8.86814322 3.2233871,9.50791833 C3.84153226,10.5455368 4.87741935,10.2471543 5.28104839,10.0697376 C5.34596774,9.63963673 5.52943548,9.34125422 5.73266129,9.16383759 C4.15483871,8.99717349 2.56290323,8.7794349 2.56290323,6.19345316 C2.56290323,5.45421721 2.77741935,5.08325517 3.22903226,4.61014417 C3.15564516,4.43541567 2.91572581,3.71499664 3.30241935,2.78490342 C3.89233871,2.61017492 5.25,3.51069871 5.25,3.51069871 C5.81451613,3.36016339 6.42137097,3.2822076 7.02258065,3.2822076 C7.62379032,3.2822076 8.23064516,3.36016339 8.79516129,3.51069871 C8.79516129,3.51069871 10.1528226,2.60748679 10.7427419,2.78490342 C11.1294355,3.71768477 10.8895161,4.43541567 10.816129,4.61014417 C11.2677419,5.08594331 11.5443548,5.45690534 11.5443548,6.19345316 C11.5443548,8.78749929 9.88185484,8.99448536 8.30403226,9.16383759 C8.56370968,9.37619992 8.78387097,9.77941953 8.78387097,10.4111302 C8.78387097,11.3170303 8.77540323,12.4379808 8.77540323,12.6584075 C8.77540323,12.833136 8.90524194,13.0454983 9.26370968,12.9836713 C12.0862903,12.0912119 14,9.54017589 14,6.55903894 C14,2.83060164 10.8245968,0 6.90967742,0 Z M2.74354839,9.27136282 C2.70685484,9.29824413 2.71532258,9.36007114 2.76330645,9.41114562 C2.80846774,9.45415571 2.8733871,9.47297263 2.91008065,9.43802693 C2.94677419,9.41114562 2.93830645,9.34931861 2.89032258,9.29824413 C2.84516129,9.25523404 2.78024194,9.23641712 2.74354839,9.27136282 Z M2.43870968,9.05362424 C2.41895161,9.08856993 2.44717742,9.13158003 2.50362903,9.15846133 C2.54879032,9.18534264 2.60524194,9.17727825 2.625,9.13964442 C2.64475806,9.10469872 2.61653226,9.06168863 2.56008065,9.03480732 C2.50362903,9.01867854 2.45846774,9.02674293 2.43870968,9.05362424 Z M3.35322581,10.0105988 C3.30806452,10.0455445 3.325,10.1261884 3.38991935,10.1772629 C3.45483871,10.2390899 3.53669355,10.2471543 3.5733871,10.2041442 C3.61008065,10.1691985 3.59314516,10.0885546 3.53669355,10.0374801 C3.47459677,9.97565307 3.38991935,9.96758868 3.35322581,10.0105988 Z M3.03145161,9.61544355 C2.98629032,9.64232486 2.98629032,9.71221626 3.03145161,9.77404327 C3.0766129,9.83587027 3.15282258,9.86275158 3.18951613,9.83587027 C3.23467742,9.80092457 3.23467742,9.73103317 3.18951613,9.66920617 C3.15,9.60737916 3.0766129,9.58049785 3.03145161,9.61544355 Z" id="Shape"></path>
                </g>
            </g>
        </g>
    </g>
</svg>