<svg width="17px" height="14px" viewBox="0 0 17 14" version="1.1" xmlns="http://www.w3.org/2000/svg" xmlns:xlink="http://www.w3.org/1999/xlink">
    <g id="Page-1" stroke="none" stroke-width="1" fill="none" fill-rule="evenodd">
        <g id="Error" transform="translate(-1330.000000, -26.000000)" fill="#C4C4C4">
            <g id="Group-47">
                <g id="Group-46" transform="translate(1238.000000, 21.000000)">
                    <g id="twitter-brands" transform="translate(92.000000, 5.000000)">
                        <path d="M15.2525791,3.4890498 C15.2633702,3.64216748 15.2633702,3.79531884 15.2633702,3.94843653 C15.2633702,8.61872801 11.7576709,14 5.35027285,14 C3.37627295,14 1.5425236,13.4202873 0,12.4140805 C0.280467892,12.4468722 0.550111524,12.457814 0.841370474,12.457814 C2.47015613,12.457814 3.96954871,11.9000185 5.16689128,10.9484534 C3.63515873,10.915628 2.3515209,9.89844579 1.90925355,8.49843569 C2.1250083,8.53122738 2.34072985,8.55311095 2.56727565,8.55311095 C2.88008352,8.55311095 3.19292458,8.50934381 3.48415033,8.43281863 C1.88770464,8.10466601 0.690328868,6.682806 0.690328868,4.96561874 L0.690328868,4.92188526 C1.15414513,5.18438715 1.69353201,5.34844663 2.26519244,5.37029653 C1.32673565,4.73590854 0.711910984,3.65310927 0.711910984,2.42810043 C0.711910984,1.77186253 0.884468299,1.1702999 1.18651831,0.645296114 C2.90163243,2.78904475 5.47969914,4.18902118 8.37054051,4.34217253 C8.31661842,4.07967064 8.28424525,3.80626063 8.28424525,3.53281695 C8.28424525,1.58591948 9.83755991,0 11.7683956,0 C12.7715655,0 13.6776491,0.426561369 14.3140891,1.11562463 C15.1015043,0.962506944 15.8565795,0.667179688 16.5253927,0.262501894 C16.2664737,1.08283294 15.7163622,1.7718962 14.9936601,2.20936569 C15.6948133,2.13284051 16.3743843,1.93592201 17,1.66251199 C16.5254591,2.36248338 15.9321501,2.98589592 15.2525791,3.4890498 Z" id="Path"></path>
                    </g>
                </g>
            </g>
        </g>
    </g>
</svg>