
<svg width="25px" height="30px" viewBox="0 0 25 30" version="1.1" xmlns="http://www.w3.org/2000/svg" xmlns:xlink="http://www.w3.org/1999/xlink">
    <g id="Page-1" stroke="none" stroke-width="1" fill="none" fill-rule="evenodd">
        <g id="detail" transform="translate(-490.000000, -1233.000000)">
            <g id="Group-30" transform="translate(487.000000, 1233.000000)">
                <g id="space-capsule" transform="translate(3.000000, 0.000000)">
                    <path d="M19,2 L18.8191566,0.573943237 C18.7775835,0.245196462 18.5161343,0 18.2068761,0 L5.79289295,0 C5.48386566,0 5.22218553,0.245196462 5.18061241,0.573695266 L5,1.99975203 L19,1.99975203 L19,2 Z" id="Path" fill="#D82FEA"></path>
                    <path d="M20.0681416,30 L4.93185841,30 C1.9452794,30 -0.35622786,27.3671193 0.0456778158,24.4095606 L0.161170652,23.5636831 L2.05659776,9.61411971 L2.27552389,8 L22.7244762,8 L22.9434023,9.61411971 L24.8388294,23.5636831 L24.9543222,24.4095606 C25.3562279,27.3671193 23.0547207,30 20.0681416,30 Z" id="Path" fill="#898EC9"></path>
                    <path d="M23,9.98207169 C22.9323806,9.99402392 22.862896,10 22.7920123,10 L2.20798774,10 C2.13710403,10 2.06761936,9.99402392 2,9.98207169 L2.22011259,8 L22.7798874,8 L23,9.98207169 Z" id="Path" fill="#6163AA"></path>
                    <path d="M20.2479061,30 L19,30 C21.8779611,30 24.0955421,27.367351 23.7082532,24.4100241 L23.5974076,23.5639148 L21.5597272,8 L22.8074098,8 L24.8450903,23.5639148 L24.9559358,24.4100241 C25.3434483,27.367351 23.1256438,30 20.2479061,30 Z" id="Path" fill="#6163AA"></path>
                    <path d="M20.0684751,30 L4.93147951,30 C1.94508336,30 -0.356229786,27.5457295 0.0456825483,24.7887801 L0.160713417,24 L24.8392412,24 L24.954272,24.7887801 C25.3564163,27.5457295 23.0548712,30 20.0684751,30 Z" id="Path" fill="#D82FEA"></path>
                    <path d="M20.2479061,30 L19,30 C21.8779611,30 24.0955421,27.5457295 23.7082532,24.7887801 L23.5974076,24 L24.8450903,24 L24.9559358,24.7887801 C25.3434483,27.5457295 23.1256438,30 20.2479061,30 Z" id="Path" fill="#B200BF"></path>
                    <path d="M20.2594993,9 L3.74031991,9 C3.29219188,9 2.94627658,8.63290213 3.00691513,8.22106224 L3.44424765,5.23975041 L3.83196681,2.59379086 C3.88226926,2.25396439 4.19533866,2 4.56560127,2 L19.4344476,2 C19.8044805,2 20.1177796,2.25396439 20.1680821,2.59379086 L20.5558012,5.23975041 L20.9931337,8.22106224 C21.0535426,8.63290213 20.7076273,9 20.2594993,9 Z" id="Path" fill="#898EC9"></path>
                    <path d="M20.2594993,9 L3.74031991,9 C3.29219188,9 2.94627658,8.60949627 3.00691513,8.17139781 L3.44424765,5 L20.5558012,5 L20.9931337,8.17139781 C21.0535426,8.60949627 20.7076273,9 20.2594993,9 Z" id="Path" fill="#6163AA"></path>
                    <path d="M21.2202979,9 L19.8691489,9 C20.3417123,9 20.7056321,8.6333059 20.6417526,8.22144094 L19.7726037,2.59382701 C19.7193707,2.25397985 19.3898104,2 19,2 L20.350907,2 C20.7407174,2 21.0712457,2.25397985 21.1235108,2.59382701 L21.9926597,8.22144094 C22.0567811,8.63351901 21.6926194,9 21.2202979,9 Z" id="Path" fill="#6163AA"></path>
                    <path d="M22.251887,9 L1.74811286,9 C1.33492042,9 1,8.70134625 1,8.33289611 L1,6.66731104 C1,6.29865375 1.33492042,6 1.74811286,6 L22.251887,6 C22.6650794,6 22.9999999,6.29886091 22.9999999,6.66731104 L22.9999999,8.33289611 C23.0002321,8.70134625 22.6650794,9 22.251887,9 Z" id="Path" fill="#2DE0C7"></path>
                    <path d="M7,30 L7,15.8436352 C7,13.1684447 9.01477396,11 11.5001102,11 C13.985226,11 16,13.1684447 16,15.8436352 L16,30 L7,30 Z" id="Path" fill="#383C7C"></path>
                    <path d="M16,16.4995905 C16,17.8809485 14.8804717,19 13.5001024,19 C13.1053601,19 12.7321158,18.9082644 12.400434,18.7456794 C11.9932026,18.5462364 11.6488268,18.2394954 11.4035461,17.8610861 C11.1484379,17.4693669 11,17.0014743 11,16.4995905 C11,15.1190516 12.1195283,14 13.5001024,14 C14.0019246,14 14.4697596,14.1478418 14.861226,14.4027767 C15.2389746,14.6480875 15.5462921,14.9933246 15.7459154,15.3997871 C15.9084804,15.7317143 16,16.1047997 16,16.4995905 Z" id="Path" fill="#2DE0C7"></path>
                    <path d="M16,16.1478618 L12.1478617,20 C11.678957,19.7703805 11.2824272,19.4172285 11,18.9815644 L14.9813287,15 C15.4162855,15.2824273 15.7701448,15.6799 16,16.1478618 Z" id="Path" fill="#9BF2E5"></path>
                    <path d="M9.5,23 C9.22371085,23 9,22.8677921 9,22.7045115 L9,22.2954885 C9,22.1322079 9.22371085,22 9.5,22 C9.77603638,22 10,22.1322079 10,22.2954885 L10,22.7045115 C10,22.8677921 9.77603638,23 9.5,23 Z" id="Path" fill="#898EC9"></path>
                    <path d="M21,20.0001181 C21,20.5523798 20.5521436,21 19.9998819,21 C19.4476201,21 19,20.5523798 19,20.0001181 C19,19.4478564 19.4476201,19 19.9998819,19 C20.5521436,19 21,19.4478564 21,20.0001181 Z" id="Path" fill="#D82FEA"></path>
                    <path d="M6,20.0001181 C6,20.5523798 5.55232695,21 5.00000003,21 C4.44767305,21 4,20.5523798 4,20.0001181 C4,19.4478564 4.44767305,19 5.00000003,19 C5.55232695,19 6,19.4478564 6,20.0001181 Z" id="Path" fill="#D82FEA"></path>
                    <g id="Group" transform="translate(11.000000, 1.000000)" fill="#B200BF">
                        <path d="M0.453767123,1.954472 C0.219820219,1.954472 0.030393863,1.71578662 0.030393863,1.42160559 L0.030393863,0.58243531 C0.030393863,0.288254345 0.220034247,0.0498383448 0.453767123,0.0498383448 C0.6875,0.0498383448 0.877140384,0.288254345 0.877140384,0.58243531 L0.877140384,1.42160559 C0.877140384,1.71578662 0.687714027,1.954472 0.453767123,1.954472 Z" id="Path"></path>
                        <path d="M2.00256849,1.954472 C1.76862159,1.954472 1.57919518,1.71578662 1.57919518,1.42160559 L1.57919518,0.58243531 C1.57919518,0.288254345 1.76862159,0.0498383448 2.00256849,0.0498383448 C2.23630137,0.0498383448 2.42572773,0.288254345 2.42572773,0.58243531 L2.42572773,1.42160559 C2.42572773,1.71578662 2.23630137,1.954472 2.00256849,1.954472 Z" id="Path"></path>
                        <path d="M3.55115584,1.954472 C3.31742296,1.954472 3.12778252,1.71578662 3.12778252,1.42160559 L3.12778252,0.58243531 C3.12778252,0.288254345 3.31742296,0.0498383448 3.55115584,0.0498383448 C3.78488871,0.0498383448 3.9745291,0.288254345 3.9745291,0.58243531 L3.9745291,1.42160559 C3.9745291,1.71578662 3.78488871,1.954472 3.55115584,1.954472 Z" id="Path"></path>
                    </g>
                    <path d="M4.5041364,26 L4.49586367,26 C4.2218601,26 4,25.7760364 4,25.5 C4,25.2239636 4.2218601,25 4.49586367,25 L4.5041364,25 C4.7781399,25 5,25.2239636 5,25.5 C5,25.7760364 4.7781399,26 4.5041364,26 Z" id="Path" fill="#383C7C"></path>
                    <path d="M5.5041364,26 L5.4958636,26 C5.2218601,26 5,25.7760364 5,25.5 C5,25.2239636 5.2218601,25 5.4958636,25 L5.5041364,25 C5.7781399,25 6,25.2239636 6,25.5 C6,25.7760364 5.7781399,26 5.5041364,26 Z" id="Path" fill="#383C7C"></path>
                </g>
            </g>
        </g>
    </g>
</svg>