
<svg width="14px" height="8px" viewBox="0 0 14 8" version="1.1" xmlns="http://www.w3.org/2000/svg" xmlns:xlink="http://www.w3.org/1999/xlink">
    <g id="Page-1" stroke="none" stroke-width="1" fill="none" fill-rule="evenodd">
        <g id="detail" transform="translate(-248.000000, -1219.000000)" fill="#586069">
            <g id="Group-15" transform="translate(55.000000, 1196.000000)">
                <g id="Group-28" transform="translate(25.000000, 12.000000)">
                    <g id="Group-17" transform="translate(168.000000, 4.000000)">
                        <g id="code" transform="translate(0.000000, 7.000000)">
                            <path d="M4.25005,8 C4.05808005,8 3.86614135,7.93105857 3.71970294,7.79326395 L0.219681061,4.49913419 C-0.0732270202,4.2234567 -0.0732270202,3.77651388 0.219681061,3.50086581 L3.71970294,0.206736054 C4.01261102,-0.0689120181 4.48745773,-0.0689120181 4.78036581,0.206736054 C5.0732114,0.482384126 5.0732114,0.929326946 4.78036581,1.20500443 L1.810691,3.99998529 L4.78036581,6.79496616 C5.0732114,7.07064364 5.0732114,7.51755705 4.78036581,7.79323453 C4.63389615,7.93105857 4.44201995,8 4.25005,8 Z" id="Path"></path>
                            <path d="M9.74995,8 C9.94191995,8 10.1338586,7.93105857 10.2802971,7.79326395 L13.7803189,4.49913419 C14.073227,4.2234567 14.073227,3.77651388 13.7803189,3.50086581 L10.2802971,0.206736054 C9.98738898,-0.0689120181 9.51254227,-0.0689120181 9.21963419,0.206736054 C8.9267886,0.482384126 8.9267886,0.929326946 9.21963419,1.20500443 L12.189309,3.99998529 L9.21963419,6.79496616 C8.9267886,7.07064364 8.9267886,7.51755705 9.21963419,7.79323453 C9.36610385,7.93105857 9.55798005,8 9.74995,8 Z" id="Path"></path>
                        </g>
                    </g>
                </g>
            </g>
        </g>
    </g>
</svg>