
<svg width="30px" height="30px" viewBox="0 0 30 30" version="1.1" xmlns="http://www.w3.org/2000/svg" xmlns:xlink="http://www.w3.org/1999/xlink">
    <g id="Page-1" stroke="none" stroke-width="1" fill="none" fill-rule="evenodd">
        <g id="detail" transform="translate(-487.000000, -1288.000000)">
            <g id="Group-30" transform="translate(487.000000, 1233.000000)">
                <g id="space-colony" transform="translate(0.000000, 55.000000)">
                    <path d="M15,15.3846154 C14.7874698,15.3846154 14.6153846,15.2010112 14.6153846,14.9747181 L14.6153846,13.4866131 C14.6153846,13.2603199 14.7874698,13.0769231 15,13.0769231 C15.2123357,13.0769231 15.3846154,13.2603199 15.3846154,13.4866131 L15.3846154,14.9747181 C15.3846154,15.2010112 15.2123357,15.3846154 15,15.3846154 Z" id="Path" fill="#6163AA"></path>
                    <path d="M25.7691335,11.5384615 C25.5567442,11.5384615 25.3846154,11.362537 25.3846154,11.1454641 L25.3846154,9.62396552 C25.3846154,9.40669373 25.5567442,9.23076923 25.7691335,9.23076923 C25.9817174,9.23076923 26.1538462,9.40689251 26.1538462,9.62396552 L26.1538462,11.1454641 C26.1538462,11.362537 25.9817174,11.5384615 25.7691335,11.5384615 Z" id="Path" fill="#6163AA"></path>
                    <path d="M3.46153849,3.07692308 C3.24900836,3.07692308 3.07692308,2.90040446 3.07692308,2.68284424 L3.07692308,1.16330961 C3.07692308,0.945550166 3.24920279,0.769230769 3.46153849,0.769230769 C3.67387418,0.769230769 3.84615385,0.945749385 3.84615385,1.16330961 L3.84615385,2.68284424 C3.84615385,2.90060368 3.67387418,3.07692308 3.46153849,3.07692308 Z" id="Path" fill="#2DE0C7"></path>
                    <path d="M5.00000002,3.07692308 C4.78746985,3.07692308 4.61538462,2.90147234 4.61538462,2.6852283 L4.61538462,1.93015637 C4.61538462,1.71371426 4.78766428,1.53846154 5.00000002,1.53846154 C5.21233567,1.53846154 5.38461538,1.71371426 5.38461538,1.93015637 L5.38461538,2.6852283 C5.38461538,2.90167036 5.21253015,3.07692308 5.00000002,3.07692308 Z" id="Path" fill="#2DE0C7"></path>
                    <path d="M8.84615387,13.8461538 C8.63362374,13.8461538 8.46153846,13.6490207 8.46153846,13.4060531 L8.46153846,11.2093315 C8.46153846,10.9661414 8.63362374,10.7692308 8.84615387,10.7692308 C9.05848956,10.7692308 9.23076923,10.9663639 9.23076923,11.2093315 L9.23076923,13.4060531 C9.23076923,13.6490207 9.05848956,13.8461538 8.84615387,13.8461538 Z" id="Path" fill="#5100CB"></path>
                    <path d="M30,24.6153846 L30,28.744941 C30,29.4380366 29.4186082,30 28.7008631,30 L1.29890765,30 C0.58116263,30 0,29.4382581 0,28.744941 L0,24.6153846 L30,24.6153846 Z" id="Path" fill="#B200BF"></path>
                    <path d="M30,24.6153846 L30,27.2690729 C30,27.9276018 29.4186082,28.4615385 28.7008631,28.4615385 L1.29890765,28.4615385 C0.58116263,28.4615385 0,27.9276018 0,27.2690729 L0,24.6153846 L30,24.6153846 Z" id="Path" fill="#D82FEA"></path>
                    <path d="M28.7013115,26.1538462 L1.29868841,26.1538462 C0.581396221,26.1538462 0,25.5869642 0,24.8875788 L0,18.1893443 C0,17.4899589 0.581396221,16.9230769 1.29868841,16.9230769 L28.7013115,16.9230769 C29.4186037,16.9230769 29.9999999,17.4899589 29.9999999,18.1893443 L29.9999999,24.8875788 C30.0002291,25.5869642 29.4186037,26.1538462 28.7013115,26.1538462 Z" id="Path" fill="#E667F9"></path>
                    <polygon id="Path" fill="#5100CB" points="16.9230769 6.15384615 18.4615385 6.15384615 18.4615385 14.6153846 16.9230769 14.6153846"></polygon>
                    <path d="M25.3846154,6.15384615 L25.3846154,8.06421503 C25.3846154,9.133541 21.9405032,10 17.6923077,10 C17.1758145,10 16.6716885,9.98729192 16.1837519,9.96233796 C15.7252715,9.93992551 15.2811819,9.90688458 14.85598,9.86367714 C14.5733366,9.83571935 14.2985632,9.80337161 14.0339082,9.76755795 C13.5997122,9.70863872 13.1904751,9.63909096 12.8120433,9.56006987 C11.0950464,9.20586143 10,8.66727048 10,8.06421503 L10,6.15384615 L25.3846154,6.15384615 Z" id="Path" fill="#2DE0C7"></path>
                    <path d="M16.9230769,5.38486133 L13.4977843,9.23076923 C13.074879,9.16806419 12.6762835,9.09429358 12.3076923,9.00994917 L15.5363152,5.38461538 L16.9230769,5.38461538 L16.9230769,5.38486133 Z" id="Path" fill="#9BF2E5"></path>
                    <path d="M20,6.15384615 L16.0355532,10 C15.5451681,9.97736591 15.0701753,9.94423157 14.6153846,9.90059686 L18.4768963,6.15384615 L20,6.15384615 Z" id="Path" fill="#9BF2E5"></path>
                    <path d="M5.38461538,22.3076923 L5.38461538,3.67464876 C5.38461538,3.34474408 5.13289039,3.07692308 4.82281287,3.07692308 L2.86949482,3.07692308 C2.5594173,3.07692308 2.30769231,3.34474408 2.30769231,3.67464876 L2.30769231,22.3076923 L5.38461538,22.3076923 Z" id="Path" fill="#6163AA"></path>
                    <path d="M5.38461538,22.3076923 L5.38461538,20.0850859 L4.8100349,20.0850859 L4.8100349,19.7042538 C4.8100349,19.0192571 4.3359741,18.4615385 3.75351391,18.4615385 L2.30769231,18.4615385 L2.30769231,22.3076923 L5.38461538,22.3076923 Z" id="Path" fill="#4E5093"></path>
                    <path d="M10,22.3076923 L10,13.3485903 C10,13.0094827 9.7280998,12.7344236 9.39162624,12.7344236 L7.49409035,12.7344236 L7.49409035,8.29528136 C7.49409035,8.08333907 7.38523803,7.88560395 7.2069693,7.77381023 L4.77554977,6.2473602 C4.37035156,5.99302943 3.84615385,6.28741956 3.84615385,6.76952999 L3.84615385,22.3076923 L10,22.3076923 Z" id="Path" fill="#898EC9"></path>
                    <path d="M10,22.3076923 L10,20.2706017 L9.37963398,20.2706017 L9.37963398,15.7543734 C9.37963398,15.1265518 8.86627538,14.6153846 8.23553151,14.6153846 L7.59279548,14.6153846 C6.96251281,14.6153846 6.44915422,15.1265518 6.44915422,15.7543734 L6.44915422,20.2706017 L4.96834747,20.2706017 L4.96834747,19.9215567 C4.96834747,19.3008538 4.46651981,18.794509 3.84615385,18.7832569 L3.84615385,22.3076923 L10,22.3076923 Z" id="Path" fill="#6163AA"></path>
                    <path d="M25.3846154,5.76923074 C25.3846154,4.70715428 21.9406039,3.84615385 17.6923077,3.84615385 C13.4440115,3.84615385 10,4.70715428 10,5.76923074 C10,6.83130726 13.4440115,7.69230769 17.6923077,7.69230769 C21.9406039,7.69230769 25.3846154,6.83130726 25.3846154,5.76923074 Z" id="Path" fill="#6163AA"></path>
                    <path d="M26.9230769,22.3076923 L26.9230769,12.126109 C26.9230769,11.8010985 26.6603082,11.5384615 26.3351347,11.5384615 L19.1102205,11.5384615 C18.9539857,11.5384615 18.8046599,11.6001667 18.6945601,11.7106569 L15.8749781,14.5281572 C15.7646553,14.6386474 15.6153296,14.7003526 15.4595405,14.7003526 L14.4338732,14.7003526 C14.1093683,14.7003526 13.8461538,14.9634351 13.8461538,15.2877774 L13.8461538,22.3076923 L26.9230769,22.3076923 Z" id="Path" fill="#898EC9"></path>
                    <path d="M26.9230769,22.3076923 L26.9230769,19.8093476 L25.0168336,19.8093476 C24.8840005,19.319847 24.4578649,18.9606435 23.9541692,18.9606435 L23.7477876,18.9606435 L23.7477876,13.4806019 C23.7477876,12.8338463 23.2516696,12.3076923 22.6427771,12.3076923 L21.8052158,12.3076923 C21.5101303,12.3076923 21.2326519,12.4297127 21.0240416,12.6512886 L20.1742221,13.5529628 C19.9656118,13.7743022 19.8503858,14.068712 19.8503858,14.3825126 L19.8503858,20.1735171 L18.5554865,20.1735171 L18.5554865,16.5178701 C18.5554865,15.871824 18.0593684,15.3454335 17.450476,15.3454335 L15.8451129,15.3454335 C15.2355519,15.3454335 14.7396567,15.871824 14.7396567,16.5178701 L14.7396567,18.7005224 L13.8461538,18.7005224 L13.8461538,22.3076923 L26.9230769,22.3076923 Z" id="Path" fill="#6163AA"></path>
                    <path d="M6.53846154,21.5384615 C6.32612583,21.5384615 6.15384615,21.3396242 6.15384615,21.0940546 L6.15384615,18.9059455 C6.15384615,18.6606005 6.32612583,18.4615385 6.53846154,18.4615385 C6.75099168,18.4615385 6.92307692,18.6606005 6.92307692,18.9059455 L6.92307692,21.0940546 C6.92307692,21.3396242 6.75099168,21.5384615 6.53846154,21.5384615 Z" id="Path" fill="#2500AD"></path>
                    <path d="M19.6153846,21.5384615 C19.4030489,21.5384615 19.2307692,21.3463863 19.2307692,21.1091681 L19.2307692,16.5831396 C19.2307692,16.3459213 19.4030489,16.1538462 19.6153846,16.1538462 C19.8279147,16.1538462 20,16.3459213 20,16.5831396 L20,21.1091681 C20,21.3463863 19.8277203,21.5384615 19.6153846,21.5384615 Z" id="Path" fill="#2500AD"></path>
                    <path d="M17.3076923,16.9230769 C17.0953566,16.9230769 16.9230769,16.7315529 16.9230769,16.4954983 L16.9230769,15.812194 C16.9230769,15.5761394 17.0953566,15.3846154 17.3076923,15.3846154 C17.5202224,15.3846154 17.6923077,15.5761394 17.6923077,15.812194 L17.6923077,16.4954983 C17.6923077,16.7315529 17.5202224,16.9230769 17.3076923,16.9230769 Z" id="Path" fill="#2500AD"></path>
                    <path d="M2.30769231,23.4235313 L2.30769231,20.2228244 C2.30769231,20.0038915 2.48835849,19.8262708 2.7113226,19.8262708 L4.41448929,19.8262708 C4.6374534,19.8262708 4.81834456,20.0038915 4.81834456,20.2228244 L4.81834456,20.8612868 C4.81834456,21.0802197 4.99901074,21.2576195 5.22197485,21.2576195 L7.28377398,21.2576195 C7.50673809,21.2576195 7.68740427,21.0802197 7.68740427,20.8612868 L7.68740427,16.2135458 C7.68740427,15.9946129 7.86829543,15.8172132 8.09125954,15.8172132 L8.71830384,15.8172132 C8.94126795,15.8172132 9.12193413,15.9946129 9.12193413,16.2135458 L9.12193413,20.8612868 C9.12193413,21.0802197 9.30282528,21.2576195 9.5257894,21.2576195 L11.3513501,21.2576195 C11.5743142,21.2576195 11.7549804,21.0802197 11.7549804,20.8612868 L11.7549804,20.2146504 C11.7549804,19.9957174 11.9356466,19.8183176 12.1586106,19.8183176 L15.6153416,19.8183176 C15.8383057,19.8183176 16.0189719,19.640697 16.0189719,19.421764 L16.0189719,17.0804408 C16.0189719,16.8615078 16.1998631,16.6838871 16.4228272,16.6838871 L18.0431979,16.6838871 C18.266162,16.6838871 18.4468281,16.8615078 18.4468281,17.0804408 L18.4468281,20.7983242 C18.4468281,21.0172572 18.6274943,21.1948779 18.8504584,21.1948779 L20.7743394,21.1948779 C20.9973034,21.1948779 21.1781946,21.0172572 21.1781946,20.7983242 L21.1781946,15.0850801 C21.1781946,14.9799216 21.2207176,14.8791816 21.2963139,14.8047311 L22.1541969,13.9623584 C22.2300182,13.8881289 22.3326132,13.8461538 22.4397079,13.8461538 L23.2849916,13.8461538 C23.5079557,13.8461538 23.6886219,14.0237745 23.6886219,14.2427075 L23.6886219,19.6652192 C23.6886219,19.8841522 23.869288,20.0615519 24.0922522,20.0615519 L24.6092769,20.0615519 C24.832241,20.0615519 25.0129071,20.2389517 25.0129071,20.4578846 C25.0129071,20.6768176 25.1935733,20.8544383 25.4165374,20.8544383 L28.0576833,20.8544383 C28.2806474,20.8544383 28.4615385,21.031838 28.4615385,21.2507709 L28.4615385,23.449821 C28.4615385,23.6689748 28.2804223,23.8463746 28.0574583,23.8461536 L2.71109763,23.8198641 C2.48813351,23.8196431 2.30769231,23.6422433 2.30769231,23.4235313 Z" id="Path" fill="#5100CB"></path>
                    <path d="M28.4615385,22.3348631 L28.4615385,23.4367651 C28.4615385,23.6632646 28.2806489,23.8461538 28.0574618,23.8461538 L2.7110941,23.8192114 C2.48858191,23.8185264 2.30769231,23.6354088 2.30769231,23.4089093 L2.30769231,22.3076923 C2.30769231,22.5341918 2.48858191,22.7170811 2.7110941,22.7177661 L28.0574618,22.7449369 C28.2806489,22.7449369 28.4615385,22.5611343 28.4615385,22.3348631 Z" id="Path" fill="#2500AD"></path>
                    <path d="M27.5072206,14.6153846 L25.5697026,14.6153846 C25.0426013,14.6153846 24.6153846,14.2708748 24.6153846,13.8460568 C24.6153846,13.421239 25.0426013,13.0769231 25.5697026,13.0769231 L27.5072206,13.0769231 C28.0343218,13.0769231 28.4615385,13.421239 28.4615385,13.8460568 C28.4615385,14.2708748 28.0343218,14.6153846 27.5072206,14.6153846 Z" id="Path" fill="#2DE0C7"></path>
                    <path d="M4.80369114,11.5384615 L4.42707809,11.5384615 C4.10606992,11.5384615 3.84615385,11.2627801 3.84615385,10.9224949 L3.84615385,10.6159666 C3.84615385,10.2756814 4.10606992,10 4.42707809,10 L4.80369114,10 C5.12451646,10 5.38461538,10.2756814 5.38461538,10.6159666 L5.38461538,10.9224949 C5.38461538,11.2627801 5.12451646,11.5384615 4.80369114,11.5384615 Z" id="Path" fill="#2DE0C7"></path>
                    <path d="M4.80369114,14.6153846 L4.42707809,14.6153846 C4.10606992,14.6153846 3.84615385,14.3395439 3.84615385,13.9993017 L3.84615385,13.693006 C3.84615385,13.3527637 4.10606992,13.0769231 4.42707809,13.0769231 L4.80369114,13.0769231 C5.12451646,13.0769231 5.38461538,13.3527637 5.38461538,13.693006 L5.38461538,13.9993017 C5.38461538,14.3395439 5.12451646,14.6153846 4.80369114,14.6153846 Z" id="Path" fill="#2DE0C7"></path>
                    <g id="Group" transform="translate(12.307692, 16.153846)" fill="#FDA736">
                        <path d="M1.10951205,5.33852033 L0.507812515,5.33852033 C0.258132281,5.33852033 0.0559667251,5.14049073 0.0559667251,4.89591858 C0.0559667251,4.65157017 0.25836076,4.45331682 0.507812515,4.45331682 L1.10951205,4.45331682 C1.35919228,4.45331682 1.56135784,4.65157017 1.56135784,4.89591858 C1.56135784,5.14049073 1.3589638,5.33852033 1.10951205,5.33852033 Z" id="Path"></path>
                        <path d="M2.9947917,5.33852033 L2.39309211,5.33852033 C2.14341193,5.33852033 1.94124632,5.14049073 1.94124632,4.89591858 C1.94124632,4.65157017 2.14364035,4.45331682 2.39309211,4.45331682 L2.9947917,4.45331682 C3.24447187,4.45331682 3.44663743,4.65157017 3.44663743,4.89591858 C3.44663743,5.14049073 3.24447187,5.33852033 2.9947917,5.33852033 Z" id="Path"></path>
                        <path d="M9.52302632,0.918096628 L8.92132678,0.918096628 C8.67187497,0.918096628 8.46948099,0.720066972 8.46948099,0.47549482 C8.46948099,0.231146416 8.67187497,0.0328930687 8.92132678,0.0328930687 L9.52302632,0.0328930687 C9.77270649,0.0328930687 9.97487205,0.231146416 9.97487205,0.47549482 C9.97487205,0.720066972 9.77270649,0.918096628 9.52302632,0.918096628 Z" id="Path"></path>
                        <path d="M9.52302632,2.12641291 L8.92132678,2.12641291 C8.67187497,2.12641291 8.46948099,1.92815951 8.46948099,1.6838111 C8.46948099,1.4394627 8.67187497,1.24120935 8.92132678,1.24120935 L9.52302632,1.24120935 C9.77270649,1.24120935 9.97487205,1.4394627 9.97487205,1.6838111 C9.97487205,1.92815951 9.77270649,2.12641291 9.52302632,2.12641291 Z" id="Path"></path>
                        <path d="M9.52302632,3.3347292 L8.92132678,3.3347292 C8.67187497,3.3347292 8.46948099,3.13647579 8.46948099,2.89212739 C8.46948099,2.64755524 8.67187497,2.44952564 8.92132678,2.44952564 L9.52302632,2.44952564 C9.77270649,2.44952564 9.97487205,2.64777899 9.97487205,2.89212739 C9.97487205,3.13647579 9.77270649,3.3347292 9.52302632,3.3347292 Z" id="Path"></path>
                        <path d="M9.52302632,4.54282173 L8.92132678,4.54282173 C8.67187497,4.54282173 8.46948099,4.34479208 8.46948099,4.10021993 C8.46948099,3.85587152 8.67187497,3.65784192 8.92132678,3.65784192 L9.52302632,3.65784192 C9.77270649,3.65784192 9.97487205,3.85587152 9.97487205,4.10021993 C9.97487205,4.34479208 9.77270649,4.54282173 9.52302632,4.54282173 Z" id="Path"></path>
                    </g>
                    <path d="M22.470653,5.38461538 L12.1449047,5.38461538 C11.7830693,5.38461538 11.5009525,5.09197089 11.5425349,4.75840311 C11.8770316,2.07962997 14.3303904,0 17.3080086,0 C18.2363748,0 19.1137394,0.202698395 19.8920876,0.562056382 C20.200624,0.704435477 20.4935384,0.871965397 20.7676144,1.06166207 C21.2553455,1.39736129 21.6838045,1.80275803 22.0364505,2.2618667 C22.3190267,2.62953725 22.5533582,3.03152376 22.7300258,3.46057931 C22.8993417,3.87045208 23.0162777,4.30462305 23.072793,4.75563227 C23.1146051,5.09026575 22.833637,5.38461538 22.470653,5.38461538 Z" id="Path" fill="#2DE0C7"></path>
                    <path d="M20.7692308,1.32706416 L16.0481086,6.15384615 L14.6153846,6.15384615 L19.8821291,0.769230769 C20.1947445,0.928441736 20.4915314,1.11525885 20.7692308,1.32706416 Z" id="Path" fill="#9BF2E5"></path>
                    <path d="M22.3076923,3.78409454 L20.3427124,6.15384615 L18.4615385,6.15384615 L21.6507399,2.30769231 C21.9184839,2.76079865 22.1402979,3.25590797 22.3076923,3.78409454 Z" id="Path" fill="#9BF2E5"></path>
                    <path d="M21.0425314,3.84441184 C20.9162339,3.83263655 20.7952468,3.7656646 20.714204,3.64864767 C20.3729468,3.15678393 19.9494922,2.75078178 19.4558468,2.44192571 C19.2383472,2.3057739 19.1660783,2.00844782 19.293992,1.77760308 C19.4219057,1.54651304 19.7019768,1.46972829 19.9192455,1.6056348 C20.5197936,1.98121745 21.0344502,2.47504373 21.4493617,3.07288502 C21.5989792,3.28876534 21.5558026,3.59246967 21.3526183,3.75143609 C21.2595691,3.82429575 21.1492031,3.85397928 21.0425314,3.84441184 Z" id="Path" fill="#9BF2E5"></path>
                    <path d="M18.4615385,2.19726829 L18.4615385,5.38461538 L16.9230769,5.38461538 L16.9230769,2.19726829 C16.9230769,2.01518387 17.0093505,1.85048221 17.1484033,1.73141022 C17.2874561,1.61233834 17.4797954,1.53846154 17.6924346,1.53846154 C18.1166977,1.53846154 18.4615385,1.83331671 18.4615385,2.19726829 Z" id="Path" fill="#7E18EA"></path>
                    <polygon id="Path" fill="#B200BF" points="18.4615385 3.07692308 18.4615385 4.23955126 16.9230769 5.38461538 16.9230769 4.2219872"></polygon>
                </g>
            </g>
        </g>
    </g>
</svg>