
<svg width="14px" height="11px" viewBox="0 0 14 11" version="1.1" xmlns="http://www.w3.org/2000/svg" xmlns:xlink="http://www.w3.org/1999/xlink">
    <g id="Page-1" stroke="none" stroke-width="1" fill="none" fill-rule="evenodd">
        <g id="home" transform="translate(-811.000000, -437.000000)" fill="#C4C4C4" fill-rule="nonzero">
            <g id="Group-7" transform="translate(608.000000, 433.000000)">
                <g id="envelope-solid" transform="translate(203.000000, 4.000000)">
                    <path d="M13.7347656,3.63229167 C13.8414063,3.54348958 14,3.6265625 14,3.76692708 L14,9.625 C14,10.3841146 13.4121094,11 12.6875,11 L1.3125,11 C0.587890625,11 0,10.3841146 0,9.625 L0,3.76979167 C0,3.6265625 0.155859375,3.54635417 0.265234375,3.63515625 C0.877734375,4.13359375 1.68984375,4.76666667 4.47890625,6.88932292 C5.05585938,7.33046875 6.02929688,8.25859375 7,8.25286458 C7.97617188,8.26145833 8.96875,7.31328125 9.52382813,6.88932292 C12.3128906,4.76666667 13.1222656,4.13072917 13.7347656,3.63229167 Z M7,7.33333333 C7.634375,7.34479167 8.54765625,6.496875 9.00703125,6.14739583 C12.6355469,3.38880208 12.9117188,3.14817708 13.7484375,2.46067708 C13.9070313,2.33177083 14,2.13125 14,1.91927083 L14,1.375 C14,0.615885417 13.4121094,0 12.6875,0 L1.3125,0 C0.587890625,-8.14163551e-16 0,0.615885417 0,1.375 L0,1.91927083 C0,2.13125 0.09296875,2.32890625 0.2515625,2.46067708 C1.08828125,3.1453125 1.36445313,3.38880208 4.99296875,6.14739583 C5.45234375,6.496875 6.365625,7.34479167 7,7.33333333 Z" id="Shape"></path>
                </g>
            </g>
        </g>
    </g>
</svg>