
<svg width="23px" height="23px" viewBox="0 0 23 23" version="1.1" xmlns="http://www.w3.org/2000/svg" xmlns:xlink="http://www.w3.org/1999/xlink">
    <g id="Page-1" stroke="none" stroke-width="1" fill="none" fill-rule="evenodd">
        <g id="detail" transform="translate(-55.000000, -363.000000)" fill="#FFFFFF" fill-rule="nonzero">
            <g id="Group-6" transform="translate(0.000000, 65.000000)">
                <g id="Group-7" transform="translate(55.000000, 76.000000)">
                    <g id="Group-48" transform="translate(0.000000, 214.000000)">
                        <g id="Group-2" transform="translate(0.000000, 1.000000)">
                            <g id="following" transform="translate(0.000000, 7.000000)">
                                <path d="M17.5234901,15.2723457 C17.8339321,14.9115265 17.8016661,14.3599857 17.4514039,14.0401329 C16.4529092,13.1286194 15.294448,12.4218967 14.038324,11.9579734 C14.3769822,11.7221901 14.6929696,11.4536155 14.9819738,11.1559149 C16.7974485,9.28695942 17.3405757,6.47614929 16.3580921,4.03418117 C15.3756086,1.59221304 13.0610013,7.48745374e-16 10.4935847,0 C7.92616819,-7.48745374e-16 5.61156089,1.59221304 4.62907732,4.03418117 C3.64659375,6.47614929 4.18972096,9.28695942 6.00519565,11.1559149 C6.29357308,11.4530177 6.60882588,11.7211184 6.94666925,11.9565731 C6.7653202,12.0234113 6.58605666,12.0954771 6.40887863,12.1727704 C2.5221098,13.8612902 -0.00321694635,17.783428 3.07574644e-06,22.1265292 C3.07123106e-06,22.4384902 0.161663269,22.7267541 0.424087836,22.8827346 C0.686512404,23.0387151 1.00983281,23.0387151 1.27225737,22.8827346 C1.53468194,22.7267541 1.69634214,22.4384902 1.69634213,22.1265292 C1.69641955,18.5631045 3.72618696,15.3308986 6.88244661,13.8681654 C10.0387062,12.4054322 13.7347951,12.9840542 16.3260423,15.3465585 C16.494383,15.5002157 16.7151259,15.5787227 16.9396979,15.5648046 C17.16427,15.5508866 17.3742705,15.4456839 17.5234901,15.2723457 Z M5.84225352,6.53483693 C5.84225352,3.89426099 7.92894642,1.74601004 10.4938568,1.74601004 C13.0587671,1.74601004 15.14546,3.89426099 15.14546,6.53483693 C15.14546,9.17541288 13.0587671,11.3236638 10.4938568,11.3236638 C7.92894642,11.3236638 5.8419815,9.17541288 5.8419815,6.53483693 L5.84225352,6.53483693 Z M22.7515113,16.3670547 C22.5924433,16.2032583 22.37668,16.1112355 22.1516993,16.1112355 C21.9267186,16.1112355 21.7109553,16.2032583 21.5518873,16.3670547 L17.164691,20.8825544 L15.5271091,19.1462546 C15.3163477,18.9209007 15.0045891,18.8288399 14.7098439,18.9049201 C14.4150987,18.9810003 14.1824071,19.2135956 14.0998504,19.5146613 C14.0172937,19.8157269 14.0974874,20.1392569 14.3100756,20.3627846 L16.5474695,22.7350743 C16.7056726,22.9028342 16.9226197,22.9982661 17.1497297,23 L17.1559863,23 C17.3804767,22.9996649 17.5956821,22.90772 17.7544382,22.7443158 L22.7515113,17.6020679 C22.9106141,17.4383074 23,17.216179 23,16.9845613 C23,16.7529436 22.9106141,16.5308152 22.7515113,16.3670547 Z" id="Shape"></path>
                            </g>
                        </g>
                    </g>
                </g>
            </g>
        </g>
    </g>
</svg>