
<svg width="22px" height="13px" viewBox="0 0 22 13" version="1.1" xmlns="http://www.w3.org/2000/svg" xmlns:xlink="http://www.w3.org/1999/xlink">
    <g id="Page-1" stroke="none" stroke-width="1" fill="none" fill-rule="evenodd">
        <g id="detail" transform="translate(-312.000000, -368.000000)" fill="#FFFFFF">
            <g id="Group-6" transform="translate(0.000000, 65.000000)">
                <g id="Group-7" transform="translate(55.000000, 76.000000)">
                    <g id="Group-48" transform="translate(0.000000, 214.000000)">
                        <g id="Group-4" transform="translate(257.000000, 1.000000)">
                            <g id="code" transform="translate(0.000000, 12.000000)">
                                <path d="M6.80008,13 C6.49292808,13 6.18582616,12.8879702 5.9515247,12.6640539 L0.351489697,7.31109306 C-0.117163232,6.86311714 -0.117163232,6.13683506 0.351489697,5.68890694 L5.9515247,0.335946088 C6.42017763,-0.111982029 7.17993237,-0.111982029 7.6485853,0.335946088 C8.11713823,0.783874205 8.11713823,1.51015629 7.6485853,1.9581322 L2.89710561,6.4999761 L7.6485853,11.04182 C8.11713823,11.4897959 8.11713823,12.2160302 7.6485853,12.6640061 C7.41423384,12.8879702 7.10723192,13 6.80008,13 Z" id="Path"></path>
                                <path d="M15.19992,13 C15.5070719,13 15.8141738,12.8879702 16.0484753,12.6640539 L21.6485103,7.31109306 C22.1171632,6.86311714 22.1171632,6.13683506 21.6485103,5.68890694 L16.0484753,0.335946088 C15.5798224,-0.111982029 14.8200676,-0.111982029 14.3514147,0.335946088 C13.8828618,0.783874205 13.8828618,1.51015629 14.3514147,1.9581322 L19.1028944,6.4999761 L14.3514147,11.04182 C13.8828618,11.4897959 13.8828618,12.2160302 14.3514147,12.6640061 C14.5857662,12.8879702 14.8927681,13 15.19992,13 Z" id="Path"></path>
                            </g>
                        </g>
                    </g>
                </g>
            </g>
        </g>
    </g>
</svg>