
<svg width="20px" height="20px" viewBox="0 0 20 20" version="1.1" xmlns="http://www.w3.org/2000/svg" xmlns:xlink="http://www.w3.org/1999/xlink">
    <g id="Page-1" stroke="none" stroke-width="1" fill="none" fill-rule="evenodd">
        <g id="Error" transform="translate(-30.000000, -24.000000)" fill="#3F4448" fill-rule="nonzero">
            <g id="Group-47">
                <g id="Group-44" transform="translate(30.000000, 18.000000)">
                    <g id="search-solid" transform="translate(0.000000, 6.000000)">
                        <path d="M19.7280055,17.2912801 L15.8331894,13.3971292 C15.6573952,13.2213651 15.4190966,13.1237184 15.1690783,13.1237184 L14.532313,13.1237184 C15.6105168,11.7449468 16.2511887,10.0107411 16.2511887,8.12420662 C16.2511887,3.63636364 12.6142039,0 8.12559434,0 C3.63698477,0 0,3.63636364 0,8.12420662 C0,12.6120496 3.63698477,16.2484132 8.12559434,16.2484132 C10.0124511,16.2484132 11.746953,15.6078508 13.1259601,14.5298311 L13.1259601,15.1664876 C13.1259601,15.4164632 13.2236235,15.6547212 13.3994176,15.8304853 L17.2942337,19.7246363 C17.6614481,20.0917879 18.2552415,20.0917879 18.6185493,19.7246363 L19.724099,18.6192755 C20.0913133,18.2521238 20.0913133,17.6584318 19.7280055,17.2912801 Z M8.12559434,13.1237184 C5.36367357,13.1237184 3.12522859,10.8895616 3.12522859,8.12420662 C3.12522859,5.36275754 5.35976704,3.12469485 8.12559434,3.12469485 C10.8875151,3.12469485 13.1259601,5.35885167 13.1259601,8.12420662 C13.1259601,10.8856557 10.8914216,13.1237184 8.12559434,13.1237184 Z" id="Shape"></path>
                    </g>
                </g>
            </g>
        </g>
    </g>
</svg>