
<svg width="14px" height="14px" viewBox="0 0 14 14" version="1.1" xmlns="http://www.w3.org/2000/svg" xmlns:xlink="http://www.w3.org/1999/xlink">
    <g id="Page-1" stroke="none" stroke-width="1" fill="none" fill-rule="evenodd">
        <g id="Error" transform="translate(-1363.000000, -26.000000)" fill="#C4C4C4">
            <g id="Group-47">
                <g id="Group-46" transform="translate(1238.000000, 21.000000)">
                    <g id="facebook-square-brands" transform="translate(125.000000, 5.000000)">
                        <path d="M14,1.5 L14,12.5 C14,13.328125 13.328125,14 12.5,14 L9.834375,14 L9.834375,8.4625 L11.728125,8.4625 L12,6.35 L9.834375,6.35 L9.834375,5 C9.834375,4.3875 10.003125,3.971875 10.88125,3.971875 L12,3.971875 L12,2.084375 C11.80625,2.059375 11.14375,2 10.36875,2 C8.75625,2 7.65,2.984375 7.65,4.79375 L7.65,6.353125 L5.75,6.353125 L5.75,8.465625 L7.653125,8.465625 L7.653125,14 L1.5,14 C0.671875,14 0,13.328125 0,12.5 L0,1.5 C0,0.671875 0.671875,0 1.5,0 L12.5,0 C13.328125,0 14,0.671875 14,1.5 Z" id="Path"></path>
                    </g>
                </g>
            </g>
        </g>
    </g>
</svg>