
<svg width="17px" height="14px" viewBox="0 0 17 14" version="1.1" xmlns="http://www.w3.org/2000/svg" xmlns:xlink="http://www.w3.org/1999/xlink">
    <g id="Page-1" stroke="none" stroke-width="1" fill="none" fill-rule="evenodd">
        <g id="Error" transform="translate(-1393.000000, -26.000000)" fill="#C4C4C4" fill-rule="nonzero">
            <g id="Group-47">
                <g id="Group-46" transform="translate(1238.000000, 21.000000)">
                    <g id="weibo-brands" transform="translate(155.000000, 5.000000)">
                        <path d="M13.2962367,4.76460366 C13.5153255,3.85022812 12.9099486,2.98157136 12.2180894,3.17587616 C11.583885,3.35875127 11.3878582,2.10529479 12.0134143,1.92622958 C13.4576706,1.51095069 14.6741898,3.33970178 14.2187158,5.15702317 C14.022689,5.96472156 13.1002099,5.56849216 13.2962367,4.76460366 Z M7.31799889,14 C3.69647523,14 0,12.2479699 0,9.35405253 C0,7.84403438 0.953929092,6.10223016 2.59945677,4.45586726 C5.99612572,1.05747428 9.52225647,1.01657085 8.51381714,4.26157598 C8.37754156,4.70810505 8.93286456,4.45586726 8.93286456,4.46609312 C11.6413418,3.32079719 13.7195445,3.89344515 12.8167187,6.2181232 C12.6906638,6.53853337 12.8541945,6.58966265 13.0994906,6.66465226 C17.7226398,8.10649803 14.2850881,14 7.31799889,14 Z M11.621397,9.31471011 C11.4485241,7.53050901 9.10833736,6.30367056 6.39039133,6.56953894 C3.67564665,6.84501703 1.62678274,8.50108879 1.79965563,10.2852899 C1.97252852,12.069491 4.31271527,13.2963294 7.0306613,13.0304611 C9.74540598,12.754983 11.7942699,11.0989112 11.621397,9.31471011 Z M11.2780354,0.104959249 C10.3749007,0.296571303 10.6922183,1.60021761 11.5674569,1.41544884 C14.0885626,0.895358975 16.2679417,3.22207678 15.4624432,5.6582872 C15.2044047,6.486325 16.4771621,6.92429542 16.7665836,6.06888446 C17.8789387,2.65408391 14.845243,-0.63411582 11.2780354,0.104959249 Z M8.75048774,10.4707771 C8.18480121,11.7487833 6.54067136,12.4470754 5.14134152,11.9958206 C3.79163331,11.5643288 3.22263868,10.2369152 3.80817386,9.04125472 C4.39370903,7.87523875 5.89559023,7.21647266 7.22875789,7.5557372 C8.6181634,7.91147088 9.31617426,9.20924007 8.75048774,10.4707771 Z M5.8252129,9.40736535 C5.41344652,9.21094767 4.86761667,9.41827744 4.61225768,9.87658537 C4.34732272,10.3458054 4.47500222,10.8950474 4.8867686,11.1132893 C5.30491895,11.3315312 5.86990073,11.1242014 6.13483569,10.6440693 C6.39019468,10.1675745 6.25293922,9.61469512 5.8252129,9.40736535 Z M6.93143385,9.35990077 C6.71522537,9.27884499 6.44814431,9.3885087 6.32520223,9.61737209 C6.20226016,9.86053944 6.26585089,10.1227787 6.48205936,10.2324425 C6.69826784,10.3278022 6.97806705,10.2181385 7.10100912,9.97497114 C7.21971181,9.7270358 7.14764232,9.45526052 6.93143385,9.35990077 Z" id="Shape"></path>
                    </g>
                </g>
            </g>
        </g>
    </g>
</svg>