
<svg width="14px" height="12px" viewBox="0 0 14 12" version="1.1" xmlns="http://www.w3.org/2000/svg" xmlns:xlink="http://www.w3.org/1999/xlink">
    <g id="Page-1" stroke="none" stroke-width="1" fill="none" fill-rule="evenodd">
        <g id="home" transform="translate(-737.000000, -437.000000)" fill="#C4C4C4" fill-rule="nonzero">
            <g id="Group-7" transform="translate(608.000000, 433.000000)">
                <g id="weibo-brands" transform="translate(129.000000, 4.000000)">
                    <path d="M10.949842,4.083946 C11.1302681,3.30019553 10.6317224,2.55563259 10.0619559,2.72217957 C9.53967002,2.87892966 9.37823619,1.8045384 9.89340004,1.65105393 C11.0827875,1.29510059 12.0846269,2.86260152 11.7095306,4.42030557 C11.5480968,5.11261848 10.7884082,4.77299328 10.949842,4.083946 Z M6.02658732,12 C3.04415607,12 0,10.4982599 0,8.01775931 C0,6.72345804 0.785588664,5.23048299 2.14072911,3.81931479 C4.93798589,0.906406525 7.84185827,0.871346445 7.01137882,3.65277942 C6.89915187,4.03551862 7.3564767,3.81931479 7.3564767,3.82807981 C9.58698737,2.84639759 11.2984484,3.3372387 10.5549448,5.32981988 C10.4511349,5.60445717 10.5858072,5.64828227 10.7878158,5.71255908 C14.5951151,6.94842688 11.7641902,12 6.02658732,12 Z M9.57056224,7.98403724 C9.42819632,6.45472201 7.50098371,5.40314619 5.26267521,5.63103338 C3.02700312,5.86715745 1.33970343,7.28664753 1.48206934,8.81596276 C1.62443525,10.345278 3.55164787,11.3968538 5.78995637,11.1689666 C8.02562846,10.9328425 9.71292815,9.51335247 9.57056224,7.98403724 Z M9.28779384,0.0899650702 C8.54403587,0.254203974 8.80535624,1.37161509 9.52614099,1.21324186 C11.6023457,0.76745055 13.3971284,2.7617801 12.7337767,4.84996045 C12.5212744,5.55970715 13.5694276,5.93511036 13.8077747,5.20190096 C14.7238318,2.27492906 12.2254942,-0.543527846 9.28779384,0.0899650702 Z M7.20628402,8.97495182 C6.74042452,10.0703857 5.38643523,10.6689217 4.23404596,10.2821319 C3.12252155,9.91228185 2.65393773,8.77449871 3.13614318,7.7496469 C3.61834862,6.75020464 4.85519195,6.185548 5.95309474,6.47634617 C7.09731104,6.78126076 7.67214351,7.89363434 7.20628402,8.97495182 Z M4.79723416,8.06345601 C4.45813243,7.895098 4.00862549,8.07280924 3.79832985,8.4656446 C3.58014812,8.86783318 3.68529594,9.33861207 4.02439767,9.52567653 C4.36875678,9.71274099 4.83403589,9.53502975 5.05221762,9.12348794 C5.26251327,8.71506388 5.14947936,8.24116725 4.79723416,8.06345601 Z M5.70823964,8.02277209 C5.5301856,7.9532957 5.31023649,8.04729317 5.20899008,8.24346179 C5.10774366,8.45189095 5.1601125,8.6766675 5.33816654,8.77066496 C5.51622057,8.85240189 5.74664345,8.75840442 5.84788986,8.54997526 C5.94564502,8.33745925 5.88629368,8.10450902 5.70823964,8.02277209 Z" id="Shape"></path>
                </g>
            </g>
        </g>
    </g>
</svg>