
<svg width="29px" height="30px" viewBox="0 0 29 30" version="1.1" xmlns="http://www.w3.org/2000/svg" xmlns:xlink="http://www.w3.org/1999/xlink">
    <g id="Page-1" stroke="none" stroke-width="1" fill="none" fill-rule="evenodd">
        <g id="detail" transform="translate(-488.000000, -1343.000000)">
            <g id="Group-30" transform="translate(487.000000, 1233.000000)">
                <g id="galaxy" transform="translate(1.000000, 110.000000)">
                    <path d="M28,15.9998873 C28,23.1796358 21.9557757,29 14.500117,29 C7.04422432,29 1,23.1796358 1,15.9998873 C1,8.82036412 7.04422432,3 14.500117,3 C21.9557757,3 28,8.82036412 28,15.9998873 Z" id="Path" fill="#E667F9"></path>
                    <path d="M26,15.9998871 C26,22.0751018 21.0751018,27 15.0001128,27 C8.92489816,27 4,22.0751018 4,15.9998871 C4,9.9248982 8.92489816,5 15.0001128,5 C21.0751018,5 26,9.9248982 26,15.9998871 Z" id="Path" fill="#6163AA"></path>
                    <path d="M16.1906375,30 C14.2140893,30 12.2924071,29.6202794 10.479314,28.8714437 C8.59695247,28.0940194 6.92331038,26.9541661 5.50525249,25.4836999 C3.24477269,23.1398995 2,20.0242081 2,16.7111634 C2,13.3981187 3.24477269,10.2826579 5.50525249,7.93862685 C7.33274802,6.04371284 9.76399831,5 12.3500165,5 C14.9362632,5 17.3672848,6.04371284 19.1947804,7.93862685 C22.2393869,11.0958178 22.2393869,16.2325356 19.1947804,19.3897266 C17.9888711,20.6400147 16.3918129,21.3199152 14.7156561,21.3199152 C14.4310387,21.3199152 14.1445923,21.3003181 13.857003,21.2606631 C13.6167356,21.2274635 13.4487084,21.0042883 13.481628,20.7622078 C13.5145476,20.5198967 13.7360692,20.3504403 13.976108,20.3836399 C15.6783261,20.6185733 17.3512823,20.0313552 18.5656501,18.7725366 C21.281975,15.9558722 21.281975,11.3727118 18.5656501,8.5560474 C16.9045815,6.83381752 14.6971388,5.885323 12.3500165,5.885323 C10.0028941,5.885323 7.79545141,6.83358698 6.13461145,8.5560474 C1.79768159,13.0527505 1.79768159,20.3695762 6.13461145,24.8665099 C7.46808419,26.2491354 9.04182438,27.3209757 10.8119392,28.0520589 C12.518958,28.7570895 14.3286221,29.114677 16.1906375,29.114677 C18.0524242,29.114677 19.8620883,28.7570895 21.5691072,28.0520589 C23.3392219,27.3209757 24.9129621,26.2491354 26.2466635,24.8665099 C26.4153765,24.6912897 26.6933643,24.6871398 26.8671067,24.8577489 C27.0408491,25.0281275 27.0447354,25.3084798 26.8757938,25.4836999 C25.4577359,26.9541661 23.7840939,28.0940194 21.9017324,28.8714437 C20.0886392,29.6202794 18.166957,30 16.1906375,30 Z" id="Path" fill="#7E18EA"></path>
                    <path d="M14.8274501,27 C9.40849978,27 5,22.636085 5,17.272451 C5,12.9329025 8.56688343,9.40227833 12.9509986,9.40227833 C16.5211333,9.40227833 19.1618671,11.9869738 19.678588,15.9872293 C19.7097074,16.2288261 19.5369252,16.4499642 19.2928472,16.4809971 C19.0492336,16.5115703 18.8251277,16.3410043 18.7937761,16.0991776 C18.566419,14.3367389 17.8903855,12.8602626 16.8390618,11.8292808 C15.8086391,10.8189875 14.464236,10.2849919 12.9509986,10.2849919 C9.05852299,10.2849919 5.89177891,13.4195443 5.89177891,17.272451 C5.89177891,22.1494432 9.90037156,26.1170566 14.8274501,26.1170566 C21.047608,26.1170566 26.1082211,21.1078872 26.1082211,14.9509604 C26.1082211,11.1932213 24.6298189,7.66029832 21.945425,5.00319267 C19.2610311,2.34608707 15.6920576,0.882713527 11.8957269,0.882713527 C11.6493265,0.882713527 11.4498374,0.685022477 11.4498374,0.441356763 C11.4498374,0.19769105 11.6493265,0 11.8957269,0 C15.9300976,0 19.723177,1.55509296 22.5761728,4.37908661 C25.4289364,7.20285046 27,10.9573713 27,14.9509604 C27,21.5947589 21.5394798,27 14.8274501,27 Z" id="Path" fill="#5100CB"></path>
                    <path d="M20,17 C20,19.7613941 17.7613941,22 15,22 C12.2386059,22 10,19.7613941 10,17 C10,14.2383665 12.2386059,12 15,12 C17.7613941,12 20,14.2383665 20,17 Z" id="Path" fill="#FD8F07"></path>
                    <path d="M20,17.000359 C20,19.7613405 17.7965676,22 15.0777992,22 C14.7071437,22 14.3466206,21.9585877 14,21.8793537 C16.2003691,21.3807301 17.8439304,19.3855176 17.8439304,17.000359 C17.8439304,14.6152005 16.2003691,12.6192699 14,12.1206463 C14.3466206,12.0414123 14.7071437,12 15.0777992,12 C17.7963319,12 20,14.2386595 20,17.000359 Z" id="Path" fill="#FD7504"></path>
                    <g id="Group" transform="translate(0.000000, 2.000000)" fill="#E667F9">
                        <path d="M1.42277578,21.9962709 C1.4220742,21.9962709 1.42137267,21.9962709 1.42067109,21.9962709 C1.17278445,21.9951319 0.972604297,21.7985455 0.973773559,21.5568557 L0.97447514,21.3876046 C0.975878242,21.1461427 1.17980008,20.9504674 1.42558204,20.9522898 C1.67370252,20.9534287 1.87364884,21.150243 1.87247957,21.3917049 L1.87177799,21.5609561 C1.87060873,21.8019624 1.669727,21.9962709 1.42277578,21.9962709 Z" id="Path"></path>
                        <path d="M1.41739709,23.7195346 C1.41646167,23.7195346 1.41576015,23.7195346 1.41505857,23.7195346 C1.16717192,23.7183956 0.966991769,23.5215814 0.968161031,23.2801195 L0.969096452,23.1108683 C0.970265714,22.869862 1.17114745,22.6755535 1.41809867,22.6755535 L1.42020335,22.6755535 C1.66808999,22.6766924 1.86827015,22.8732789 1.86710089,23.1149686 L1.86616547,23.2842198 C1.8649962,23.5249983 1.66434831,23.7195346 1.41739709,23.7195346 Z" id="Path"></path>
                        <path d="M2.39187223,22.7762385 C2.39117065,22.7762385 2.39046913,22.7762385 2.38976755,22.7762385 L2.21577919,22.7755552 C1.96789255,22.7744161 1.76771239,22.5776019 1.76888165,22.33614 C1.77005091,22.0953614 1.97093265,21.9008251 2.21788387,21.9008251 L2.21998855,21.9008251 L2.39374307,21.9015085 C2.64186355,21.9028753 2.84180987,22.0994617 2.84064061,22.3409237 C2.83970518,22.58193 2.63882345,22.7762385 2.39187223,22.7762385 Z" id="Path"></path>
                        <path d="M0.622756736,22.7709993 C0.622055155,22.7709993 0.621353574,22.7709993 0.620652053,22.7709993 L0.446897534,22.7703159 C0.199010894,22.7689491 -0.00116927361,22.5723627 -5.31563996e-17,22.3309007 C0.00116927361,22.0898944 0.202050998,21.8955859 0.449002217,21.8955859 L0.4511069,21.8955859 L0.624861419,21.8962693 C0.8729819,21.8974082 1.07292822,22.0942225 1.07175895,22.3356844 C1.07058963,22.5764629 0.869707956,22.7709993 0.622756736,22.7709993 Z" id="Path"></path>
                        <path d="M2.41128224,25.242795 C2.41034681,25.242795 2.40964523,25.242795 2.40894365,25.242795 C2.16105701,25.241656 1.96087686,25.0448417 1.96204618,24.8033798 L1.96298154,24.6341287 C1.96415086,24.3933501 2.16503254,24.1988138 2.41198376,24.1988138 L2.4140885,24.1988138 C2.66220898,24.2001805 2.86215529,24.396767 2.86098597,24.6384567 L2.86005061,24.8077079 C2.85888129,25.0484864 2.65799961,25.242795 2.41128224,25.242795 Z" id="Path"></path>
                        <path d="M2.40566971,26.9660587 C2.40496813,26.9660587 2.40426655,26.9660587 2.40333112,26.9660587 C2.15544448,26.9646919 1.95549817,26.7681055 1.95666749,26.5264157 L1.95736901,26.3571645 C1.95877217,26.116386 2.15942001,25.9220775 2.40637123,25.9220775 L2.40870981,25.9220775 C2.65659645,25.9232164 2.85677661,26.1200307 2.85537345,26.3614926 L2.85467192,26.5307438 C2.8535026,26.7715223 2.65262093,26.9660587 2.40566971,26.9660587 Z" id="Path"></path>
                        <path d="M3.38014485,26.0227626 C3.37944327,26.0227626 3.37874169,26.0227626 3.3780401,26.0227626 L3.20428565,26.0220792 C2.95639894,26.0209402 2.75621879,25.824126 2.75738811,25.582664 C2.75855737,25.3418854 2.95943911,25.1473492 3.20639033,25.1473492 L3.20849501,25.1473492 L3.38224953,25.1480326 C3.63013617,25.1493993 3.83031633,25.3459858 3.82914706,25.5874477 C3.82797774,25.828454 3.62732991,26.0227626 3.38014485,26.0227626 Z" id="Path"></path>
                        <path d="M1.61126314,26.0175233 C1.61056161,26.0175233 1.60986003,26.0175233 1.60892461,26.0175233 L1.43517009,26.0168399 C1.18728345,26.0154732 0.987337197,25.8186589 0.988506459,25.5771969 C0.989675721,25.335735 1.19429914,25.1396041 1.43961336,25.1421099 L1.61336788,25.1427933 C1.86148836,25.14416 2.06143467,25.3407465 2.06026535,25.5824362 C2.05909609,25.8232147 1.85821435,26.0175233 1.61126314,26.0175233 Z" id="Path"></path>
                        <path d="M22.4910356,16.898235 C22.4901001,16.898235 22.4893986,16.898235 22.488697,16.898235 C22.2405765,16.897096 22.0406302,16.7002818 22.0417995,16.4588198 L22.0427349,16.2895687 C22.044138,16.0485624 22.2447859,15.8542539 22.4917371,15.8542539 L22.4940757,15.8542539 C22.7419623,15.8556206 22.9419086,16.0524349 22.9407393,16.2938968 L22.9398039,16.4631479 C22.9386346,16.7039265 22.7377529,16.898235 22.4910356,16.898235 Z" id="Path"></path>
                        <path d="M22.485423,18.6214987 C22.4847215,18.6214987 22.4840199,18.6214987 22.4833184,18.6214987 C22.2351978,18.6203598 22.0352515,18.4235455 22.0364208,18.1820835 L22.0373562,18.0128324 C22.0385255,17.7718261 22.2391733,17.5775175 22.4861246,17.5775175 L22.4884631,17.5775175 C22.7363498,17.5786565 22.9365299,17.775243 22.9353607,18.0167049 L22.9344253,18.1861839 C22.9332559,18.4269624 22.7323743,18.6214987 22.485423,18.6214987 Z" id="Path"></path>
                        <path d="M23.4598982,17.6782026 C23.4591966,17.6782026 23.458495,17.6782026 23.4577934,17.6782026 L23.284039,17.6775193 C23.0359184,17.6763803 22.8359721,17.479566 22.8371414,17.238104 C22.8383107,16.9973255 23.0391924,16.8027892 23.2861437,16.8027892 L23.2882483,16.8027892 L23.4620029,16.8034726 C23.7101233,16.8048394 23.9100697,17.0014258 23.9089004,17.2428878 C23.9077311,17.4838941 23.7068494,17.6782026 23.4598982,17.6782026 Z" id="Path"></path>
                        <path d="M21.6910165,17.6729634 C21.6903149,17.6729634 21.6896134,17.6729634 21.6889118,17.6729634 L21.5151573,17.67228 C21.2670368,17.6709132 21.0670905,17.4743268 21.0682598,17.2328648 C21.069429,16.9918584 21.2703108,16.7975499 21.517262,16.7975499 L21.5193667,16.7975499 L21.6931212,16.7982333 C21.9410078,16.7993723 22.141188,16.9961866 22.1400187,17.2376485 C22.1388494,17.478427 21.9379677,17.6729634 21.6910165,17.6729634 Z" id="Path"></path>
                        <path d="M25.5400412,1.08407298 C25.5393396,1.08407298 25.5386381,1.08407298 25.5379365,1.08407298 C25.2900499,1.08293396 25.0898697,0.886119706 25.091039,0.644657832 L25.0919744,0.47540667 C25.0931437,0.234628134 25.2940254,0.0400917927 25.5409766,0.0400917927 L25.5430813,0.0400917927 C25.790968,0.0412307495 25.9911482,0.237817225 25.9899789,0.479506937 L25.9890434,0.648758099 C25.9878742,0.889764415 25.7869924,1.08407298 25.5400412,1.08407298 Z" id="Path"></path>
                        <path d="M25.5346626,2.80710888 C25.533961,2.80710888 25.5332594,2.80710888 25.5325578,2.80710888 C25.2844374,2.80596993 25.084491,2.60938345 25.0856604,2.36769368 L25.0863619,2.19844258 C25.0877651,1.95766398 25.2884129,1.7631277 25.5353641,1.7631277 L25.5374688,1.7631277 C25.7855893,1.76426666 25.9855356,1.96108091 25.9843663,2.20254284 L25.9836648,2.37179401 C25.9824955,2.61280038 25.7816138,2.80710888 25.5346626,2.80710888 Z" id="Path"></path>
                        <path d="M26.5091377,1.86404058 C26.5084361,1.86404058 26.5077346,1.86404058 26.507033,1.86404058 L26.3332785,1.8631294 C26.0853918,1.86199044 25.8852117,1.66540397 25.886381,1.4237142 C25.8875503,1.18293566 26.088432,0.98839938 26.3353832,0.98839938 L26.3374879,0.98839938 L26.5112424,0.989310557 C26.7593629,0.990449514 26.9593091,1.18726377 26.9581399,1.4287257 C26.9569706,1.66973202 26.7560889,1.86404058 26.5091377,1.86404058 Z" id="Path"></path>
                        <path d="M24.740256,1.8588013 C24.7395545,1.8588013 24.7388529,1.8588013 24.7381513,1.8588013 L24.5643968,1.85789012 C24.3162763,1.85675116 24.11633,1.66016469 24.1174993,1.41847497 C24.1186686,1.17769638 24.3195503,0.983160097 24.5665015,0.983160097 L24.5686062,0.983160097 L24.7423607,0.984071274 C24.9902474,0.985210231 25.1904276,1.18179671 25.1892582,1.42348642 C25.188089,1.66426495 24.9872072,1.8588013 24.740256,1.8588013 Z" id="Path"></path>
                    </g>
                    <path d="M5,3 C5,3.55208626 4.55214989,4 3.9998581,4 C3.44785018,4 3,3.55208626 3,3 C3,2.44762991 3.44785018,2 3.9998581,2 C4.55214989,2 5,2.44762991 5,3 Z" id="Path" fill="#C5EE09"></path>
                    <path d="M28,6.00000004 C28,6.55237015 27.5523701,7 27,7 C26.4476299,7 26,6.55237015 26,6.00000004 C26,5.44762985 26.4476299,5 27,5 C27.5523701,5 28,5.44762985 28,6.00000004 Z" id="Path" fill="#7E18EA"></path>
                    <path d="M17,6.00000004 C17,6.55237015 16.5523701,7 16,7 C15.4476299,7 15,6.55237015 15,6.00000004 C15,5.44762985 15.4476299,5 16,5 C16.5523701,5 17,5.44762985 17,6.00000004 Z" id="Path" fill="#FD8F07"></path>
                    <path d="M7,27.9998581 C7,28.5521498 6.55237009,29 6,29 C5.44762991,29 5,28.5521498 5,27.9998581 C5,27.4478502 5.44762991,27 6,27 C6.55237009,27 7,27.4478502 7,27.9998581 Z" id="Path" fill="#C5EE09"></path>
                    <path d="M14,24 C14,24.5523701 13.5520862,25 13,25 C12.4476299,25 12,24.5523701 12,24 C12,23.4476299 12.4476299,23 13,23 C13.5520862,23 14,23.4476299 14,24 Z" id="Path" fill="#2DE0C7"></path>
                    <path d="M7,16.5001269 C7,17.3285968 6.32859682,18 5.5001269,18 C4.6716569,18 4,17.3285968 4,16.5001269 C4,15.671657 4.6716569,15 5.5001269,15 C6.32859682,15 7,15.671657 7,16.5001269 Z" id="Path" fill="#2DE0C7"></path>
                    <path d="M29,20.5 C29,21.3283999 28.3283999,22 27.5,22 C26.6716002,22 26,21.3283999 26,20.5 C26,19.6716002 26.6716002,19 27.5,19 C28.3283999,19 29,19.6716002 29,20.5 Z" id="Path" fill="#9BF2E5"></path>
                    <path d="M28.5027524,24 C28.3755586,24 28.2481057,23.9513016 28.1509617,23.854164 L28.1455217,23.8489833 C27.9514928,23.6547079 27.9514928,23.3397228 28.1455217,23.1457065 C28.3400686,22.9514312 28.6548151,22.9514312 28.8491031,23.1457065 L28.8542841,23.1508872 C29.048572,23.3451625 29.048572,23.6601477 28.8542841,23.854164 C28.7573991,23.9513016 28.6299462,24 28.5027524,24 Z" id="Path" fill="#2DE0C7"></path>
                    <path d="M12.5027202,12 C12.3747415,12 12.2470219,11.9510459 12.1498721,11.8531377 L12.1446908,11.8476983 C11.9509093,11.652918 11.9519456,11.337954 12.1467633,11.1444687 C12.341581,10.9509834 12.6566055,10.9520196 12.8501279,11.1465409 L12.8553092,11.1519802 C13.0490907,11.3467605 13.0480544,11.6617245 12.8532367,11.8552098 C12.7563459,11.9518229 12.6294035,12 12.5027202,12 Z" id="Path" fill="#2DE0C7"></path>
                    <path d="M3.50265504,6 C3.37443575,6 3.24621639,5.950784 3.14882149,5.85209306 L3.14364092,5.84691243 C2.95040527,5.65134378 2.9524775,5.33662063 3.14778538,5.14364226 C3.34309319,4.95040481 3.65807242,4.95247706 3.85104906,5.14778676 L3.85648865,5.1532264 C4.04946522,5.34853604 4.047652,5.66351821 3.85208511,5.85649664 C3.7552083,5.95207921 3.62880216,6 3.50265504,6 Z" id="Path" fill="#5100CB"></path>
                    <path d="M20.5027202,2 C20.3747415,2 20.2470219,1.95105058 20.1498721,1.85315188 L20.1446908,1.84771308 C19.9509093,1.65295158 19.9519456,1.33827706 20.1467633,1.14455152 C20.3415811,0.951084956 20.6566055,0.951861947 20.8501279,1.14662345 L20.8553092,1.15206225 C21.0490907,1.34682376 21.0480545,1.66175725 20.8532367,1.85522381 C20.7563459,1.95182757 20.6294036,2 20.5027202,2 Z" id="Path" fill="#FD8F07"></path>
                    <path d="M2.50259052,6 C2.3748791,6 2.24716768,5.95104435 2.15002407,5.85313297 L2.14458398,5.84795248 C1.951074,5.65290689 1.9518511,5.33819185 2.14665638,5.14444137 C2.34146165,4.9509499 2.65646593,4.95198606 2.84997597,5.14677264 L2.85541599,5.15195307 C3.04892604,5.34673965 3.04814887,5.6617137 2.8533436,5.85546425 C2.75620006,5.95182137 2.62952477,6 2.50259052,6 Z" id="Path" fill="#6163AA"></path>
                    <path d="M7.50254147,20 C7.3748425,20 7.24714347,19.9510458 7.1500094,19.8531377 L7.14456991,19.8476983 C6.95107873,19.652918 6.95185582,19.337954 7.1466421,19.1444688 C7.34168739,18.9509835 7.65640195,18.9520195 7.85015206,19.1465409 L7.85533262,19.1519802 C8.04908273,19.3467606 8.0480467,19.6617245 7.85326042,19.8552098 C7.7563853,19.9518229 7.62946342,20 7.50254147,20 Z" id="Path" fill="#C5EE09"></path>
                    <path d="M15,15.9999022 C15,16.5522534 14.5524489,17 14.0000978,17 C13.4477466,17 13,16.5522534 13,15.9999022 C13,15.4475511 13.4477466,15 14.0000978,15 C14.5524489,15 15,15.4475511 15,15.9999022 Z" id="Path" fill="#FC5921"></path>
                </g>
            </g>
        </g>
    </g>
</svg>