<svg width="12px" height="11px" viewBox="0 0 12 11" version="1.1" xmlns="http://www.w3.org/2000/svg" xmlns:xlink="http://www.w3.org/1999/xlink">
    <g id="Page-1" stroke="none" stroke-width="1" fill="none" fill-rule="evenodd">
        <g id="home" transform="translate(-682.000000, -436.000000)" fill="#C4C4C4" fill-rule="nonzero">
            <g id="Group-7" transform="translate(608.000000, 433.000000)">
                <g id="github-brands" transform="translate(74.000000, 3.000000)">
                    <path d="M4.01370968,8.85718391 C4.01370968,8.90267536 3.95806452,8.93906851 3.88790323,8.93906851 C3.80806452,8.94589223 3.75241935,8.90949907 3.75241935,8.85718391 C3.75241935,8.81169247 3.80806452,8.77529932 3.87822581,8.77529932 C3.95080645,8.7684756 4.01370968,8.80486875 4.01370968,8.85718391 Z M3.26129032,8.75482817 C3.24435484,8.80031961 3.29274194,8.85263477 3.36532258,8.8662822 C3.42822581,8.88902792 3.50080645,8.8662822 3.51532258,8.82079076 C3.52983871,8.77529932 3.48387097,8.72298416 3.41129032,8.70251301 C3.3483871,8.686591 3.27822581,8.70933672 3.26129032,8.75482817 Z M4.33064516,8.71616044 C4.26048387,8.73208245 4.21209677,8.77529932 4.21935484,8.82761448 C4.2266129,8.87310592 4.28951613,8.90267536 4.36209677,8.88675335 C4.43225806,8.87083135 4.48064516,8.82761448 4.4733871,8.78212303 C4.46612903,8.73890616 4.40080645,8.70933672 4.33064516,8.71616044 Z M5.92258065,0 C2.56693548,0 0,2.39512446 0,5.54995602 C0,8.07245653 1.68870968,10.2310255 4.10080645,10.9907326 C4.41048387,11.0430477 4.51935484,10.8633565 4.51935484,10.7155094 C4.51935484,10.5744859 4.51209677,9.79658221 4.51209677,9.31892206 C4.51209677,9.31892206 2.81854839,9.66010788 2.46290323,8.64109956 C2.46290323,8.64109956 2.18709677,7.97919907 1.79032258,7.80860616 C1.79032258,7.80860616 1.23629032,7.45149833 1.82903226,7.45832205 C1.82903226,7.45832205 2.43145161,7.50381349 2.76290323,8.04516166 C3.29274194,8.92314651 4.18064516,8.670669 4.5266129,8.52054724 C4.58225806,8.15661569 4.73951613,7.90413819 4.91370968,7.75401643 C3.56129032,7.61299295 2.19677419,7.42875261 2.19677419,5.24061421 C2.19677419,4.61510687 2.38064516,4.30121592 2.76774194,3.90089122 C2.70483871,3.75304403 2.49919355,3.1434587 2.83064516,2.35645674 C3.33629032,2.20860955 4.5,2.97059122 4.5,2.97059122 C4.98387097,2.84321518 5.50403226,2.77725258 6.01935484,2.77725258 C6.53467742,2.77725258 7.05483871,2.84321518 7.53870968,2.97059122 C7.53870968,2.97059122 8.70241935,2.20633498 9.20806452,2.35645674 C9.53951613,3.14573327 9.33387097,3.75304403 9.27096774,3.90089122 C9.65806452,4.30349049 9.89516129,4.61738144 9.89516129,5.24061421 C9.89516129,7.43557633 8.47016129,7.61071838 7.11774194,7.75401643 C7.34032258,7.93370763 7.52903226,8.27489345 7.52903226,8.8094179 C7.52903226,9.57594871 7.52177419,10.5244453 7.52177419,10.7109602 C7.52177419,10.8588074 7.63306452,11.0384986 7.94032258,10.9861834 C10.3596774,10.2310255 12,8.07245653 12,5.54995602 C12,2.39512446 9.27822581,0 5.92258065,0 Z M2.3516129,7.84499931 C2.32016129,7.86774503 2.32741935,7.92006019 2.36854839,7.96327706 C2.40725806,7.99967022 2.46290323,8.01559222 2.49435484,7.98602278 C2.52580645,7.96327706 2.51854839,7.9109619 2.47741935,7.86774503 C2.43870968,7.83135188 2.38306452,7.81542987 2.3516129,7.84499931 Z M2.09032258,7.66075897 C2.0733871,7.69032841 2.09758065,7.72672156 2.14596774,7.74946728 C2.18467742,7.772213 2.23306452,7.76538929 2.25,7.73354528 C2.26693548,7.70397584 2.24274194,7.66758268 2.19435484,7.64483696 C2.14596774,7.63118953 2.10725806,7.63801325 2.09032258,7.66075897 Z M2.87419355,8.47050665 C2.83548387,8.50007609 2.85,8.56831325 2.90564516,8.61153012 C2.96129032,8.66384528 3.03145161,8.670669 3.06290323,8.63427584 C3.09435484,8.60470641 3.07983871,8.53646924 3.03145161,8.49325237 C2.97822581,8.44093721 2.90564516,8.4341135 2.87419355,8.47050665 Z M2.5983871,8.13614455 C2.55967742,8.15889027 2.55967742,8.21802914 2.5983871,8.2703443 C2.63709677,8.32265946 2.70241935,8.34540518 2.73387097,8.32265946 C2.77258065,8.29309002 2.77258065,8.23395115 2.73387097,8.18163599 C2.7,8.12932083 2.63709677,8.10657511 2.5983871,8.13614455 Z" id="Shape"></path>
                </g>
            </g>
        </g>
    </g>
</svg>