
<svg width="13px" height="13px" viewBox="0 0 13 13" version="1.1" xmlns="http://www.w3.org/2000/svg" xmlns:xlink="http://www.w3.org/1999/xlink">
    <g id="Page-1" stroke="none" stroke-width="1" fill="none" fill-rule="evenodd">
        <g id="home" transform="translate(-765.000000, -436.000000)" fill="#C4C4C4" fill-rule="nonzero">
            <g id="Group-7" transform="translate(608.000000, 433.000000)">
                <g id="instagram-brands" transform="translate(157.000000, 3.000000)">
                    <path d="M6.50145008,3.16696419 C4.65694367,3.16696419 3.16915784,4.655082 3.16915784,6.5 C3.16915784,8.344918 4.65694367,9.83303581 6.50145008,9.83303581 C8.3459565,9.83303581 9.83374233,8.344918 9.83374233,6.5 C9.83374233,4.655082 8.3459565,3.16696419 6.50145008,3.16696419 Z M6.50145008,8.6669084 C5.30948132,8.6669084 4.3350251,7.69513556 4.3350251,6.5 C4.3350251,5.30486444 5.30658115,4.3330916 6.50145008,4.3330916 C7.69631902,4.3330916 8.66787507,5.30486444 8.66787507,6.5 C8.66787507,7.69513556 7.69341885,8.6669084 6.50145008,8.6669084 Z M10.747295,3.03062591 C10.747295,3.46284726 10.399275,3.80804418 9.9700502,3.80804418 C9.53792526,3.80804418 9.19280535,3.45994645 9.19280535,3.03062591 C9.19280535,2.60130537 9.54082543,2.25320763 9.9700502,2.25320763 C10.399275,2.25320763 10.747295,2.60130537 10.747295,3.03062591 Z M12.9543224,3.81964744 C12.9050195,2.77825505 12.6672058,1.85579605 11.9044618,1.09578266 C11.144618,0.335769274 10.2223648,0.097902488 9.18120468,0.0456878277 C8.10814278,-0.0152292759 4.89185722,-0.0152292759 3.81879532,0.0456878277 C2.78053542,0.0950016735 1.85828221,0.332868459 1.0955382,1.09288185 C0.3327942,1.85289524 0.097880647,2.77535423 0.0456776352,3.81674663 C-0.0152258784,4.89004798 -0.0152258784,8.10705121 0.0456776352,9.18035256 C0.0949804796,10.221745 0.3327942,11.1442039 1.0955382,11.9042173 C1.85828221,12.6642307 2.77763525,12.9020975 3.81879532,12.9543122 C4.89185722,13.0152293 8.10814278,13.0152293 9.18120468,12.9543122 C10.2223648,12.9049983 11.144618,12.6671315 11.9044618,11.9042173 C12.6643056,11.1442039 12.9021194,10.221745 12.9543224,9.18035256 C13.0152259,8.10705121 13.0152259,4.89294879 12.9543224,3.81964744 Z M11.5680424,10.3319759 C11.3418293,10.9005355 10.9039041,11.3385585 10.3325711,11.5677229 C9.47702175,11.9071182 7.44690463,11.8287962 6.50145008,11.8287962 C5.55599554,11.8287962 3.52297825,11.9042173 2.67032906,11.5677229 C2.10189626,11.3414593 1.663971,10.9034363 1.43485778,10.3319759 C1.0955382,9.47623564 1.17384272,7.44566551 1.17384272,6.5 C1.17384272,5.55433449 1.09843837,3.52086355 1.43485778,2.6680241 C1.66107083,2.09946447 2.0989961,1.66144148 2.67032906,1.43227714 C3.52587842,1.09288185 5.55599554,1.17120384 6.50145008,1.17120384 C7.44690463,1.17120384 9.47992192,1.09578266 10.3325711,1.43227714 C10.9010039,1.65854067 11.3389292,2.09656365 11.5680424,2.6680241 C11.907362,3.52376436 11.8290574,5.55433449 11.8290574,6.5 C11.8290574,7.44566551 11.907362,9.47913645 11.5680424,10.3319759 Z" id="Shape"></path>
                </g>
            </g>
        </g>
    </g>
</svg>