
<svg width="11px" height="11px" viewBox="0 0 11 11" version="1.1" xmlns="http://www.w3.org/2000/svg" xmlns:xlink="http://www.w3.org/1999/xlink">
    <g id="Page-1" stroke="none" stroke-width="1" fill="none" fill-rule="evenodd">
        <g id="home" transform="translate(-765.000000, -436.000000)" fill="#C4C4C4" fill-rule="nonzero">
            <g id="Group-7" transform="translate(608.000000, 433.000000)">
                <g id="instagram-brands" transform="translate(157.000000, 3.000000)">
                    <path d="M5.50122699,2.67973893 C3.9404908,2.67973893 2.68159509,3.93891554 2.68159509,5.5 C2.68159509,7.06108446 3.9404908,8.32026107 5.50122699,8.32026107 C7.06196319,8.32026107 8.3208589,7.06108446 8.3208589,5.5 C8.3208589,3.93891554 7.06196319,2.67973893 5.50122699,2.67973893 Z M5.50122699,7.33353788 C4.49263804,7.33353788 3.66809816,6.51126855 3.66809816,5.5 C3.66809816,4.48873145 4.49018405,3.66646212 5.50122699,3.66646212 C6.51226994,3.66646212 7.33435583,4.48873145 7.33435583,5.5 C7.33435583,6.51126855 6.50981595,7.33353788 5.50122699,7.33353788 L5.50122699,7.33353788 Z M9.09386503,2.56437577 C9.09386503,2.93010153 8.7993865,3.22219123 8.43619632,3.22219123 C8.07055215,3.22219123 7.77852761,2.92764699 7.77852761,2.56437577 C7.77852761,2.20110454 8.07300613,1.9065603 8.43619632,1.9065603 C8.7993865,1.9065603 9.09386503,2.20110454 9.09386503,2.56437577 Z M10.9613497,3.23200937 C10.9196319,2.35083119 10.7184049,1.57028897 10.0730061,0.927200714 C9.43006135,0.284112462 8.64969325,0.0828405668 7.76871166,0.0386589312 C6.8607362,-0.0128863104 4.1392638,-0.0128863104 3.23128834,0.0386589312 C2.35276074,0.0803860315 1.57239264,0.281657927 0.926993865,0.924746179 C0.281595092,1.56783443 0.0828220859,2.34837666 0.0386503067,3.22955484 C-0.0128834356,4.1377329 -0.0128834356,6.85981256 0.0386503067,7.76799063 C0.0803680982,8.64916881 0.281595092,9.42971103 0.926993865,10.0727993 C1.57239264,10.7158875 2.35030675,10.9171594 3.23128834,10.9613411 C4.1392638,11.0128863 6.8607362,11.0128863 7.76871166,10.9613411 C8.64969325,10.919614 9.43006135,10.7183421 10.0730061,10.0727993 C10.7159509,9.42971103 10.9171779,8.64916881 10.9613497,7.76799063 C11.0128834,6.85981256 11.0128834,4.14018744 10.9613497,3.23200937 Z M9.78834356,8.74244115 C9.59693252,9.22353007 9.22638037,9.5941649 8.74294479,9.78807319 C8.0190184,10.0752538 6.30122699,10.0089814 5.50122699,10.0089814 C4.70122699,10.0089814 2.9809816,10.0727993 2.2595092,9.78807319 C1.77852761,9.59661944 1.40797546,9.2259846 1.21411043,8.74244115 C0.926993865,8.01835323 0.993251534,6.30017851 0.993251534,5.5 C0.993251534,4.69982149 0.929447853,2.97919223 1.21411043,2.25755885 C1.40552147,1.77646993 1.77607362,1.4058351 2.2595092,1.21192681 C2.98343558,0.924746179 4.70122699,0.991018632 5.50122699,0.991018632 C6.30122699,0.991018632 8.02147239,0.927200714 8.74294479,1.21192681 C9.22392638,1.40338056 9.59447853,1.7740154 9.78834356,2.25755885 C10.0754601,2.98164677 10.0092025,4.69982149 10.0092025,5.5 C10.0092025,6.30017851 10.0754601,8.02080777 9.78834356,8.74244115 Z" id="Shape"></path>
                </g>
            </g>
        </g>
    </g>
</svg>