
<svg width="14px" height="12px" viewBox="0 0 14 12" version="1.1" xmlns="http://www.w3.org/2000/svg" xmlns:xlink="http://www.w3.org/1999/xlink">
    <g id="Page-1" stroke="none" stroke-width="1" fill="none" fill-rule="evenodd">
        <g id="home" transform="translate(-709.000000, -437.000000)" fill="#C4C4C4">
            <g id="Group-7" transform="translate(608.000000, 433.000000)">
                <g id="twitter-brands" transform="translate(101.000000, 4.000000)">
                    <path d="M12.5609475,2.99061411 C12.5698343,3.12185784 12.5698343,3.25313043 12.5698343,3.38437417 C12.5698343,7.38748115 9.68278782,12 4.40610706,12 C2.78046008,12 1.27031356,11.5031034 0,10.6406404 C0.230973558,10.6687476 0.45303302,10.6781263 0.692893332,10.6781263 C2.03424623,10.6781263 3.26904011,10.2000159 4.25508693,9.38438859 C2.99366013,9.35625257 1.93654663,8.4843821 1.57232645,7.28437344 C1.75000684,7.31248061 1.92765987,7.33123796 2.11422701,7.33123796 C2.37183348,7.33123796 2.6294673,7.29372326 2.86930027,7.22813025 C1.55458029,6.94685658 0.568506127,5.72811943 0.568506127,4.25624463 L0.568506127,4.21875879 C0.950472463,4.44376042 1.39467342,4.58438282 1.8654526,4.60311132 C1.09260583,4.05935018 0.586279634,3.13123652 0.586279634,2.08122894 C0.586279634,1.51873931 0.728385658,1.0031142 0.977132723,0.553110955 C2.38957965,2.39060978 4.51269341,3.59058958 6.8933863,3.72186217 C6.84897988,3.49686055 6.82231962,3.26250911 6.82231962,3.02812881 C6.82231962,1.35935956 8.10151993,0 9.69161989,0 C10.5177598,0 11.2639463,0.365624031 11.7880734,0.956249684 C12.436533,0.825005952 13.0583596,0.571868304 13.6091469,0.225001623 C13.3959195,0.928142517 12.9428865,1.51876817 12.3477201,1.89374202 C12.9251403,1.82814901 13.484787,1.65936172 14,1.42501028 C13.6092016,2.02498575 13.1205942,2.55933936 12.5609475,2.99061411 Z" id="Path"></path>
                </g>
            </g>
        </g>
    </g>
</svg>