
<svg width="12px" height="10px" viewBox="0 0 12 10" version="1.1" xmlns="http://www.w3.org/2000/svg" xmlns:xlink="http://www.w3.org/1999/xlink">
    <g id="Page-1" stroke="none" stroke-width="1" fill="none" fill-rule="evenodd">
        <g id="home" transform="translate(-709.000000, -437.000000)" fill="#C4C4C4">
            <g id="Group-7" transform="translate(608.000000, 433.000000)">
                <g id="twitter-brands" transform="translate(101.000000, 4.000000)">
                    <path d="M10.7665264,2.49217843 C10.7741436,2.6015482 10.7741436,2.71094203 10.7741436,2.8203118 C10.7741436,6.15623429 8.29953242,10 3.77666319,10 C2.3832515,10 1.08884019,9.58591948 0,8.86720037 C0.197977336,8.89062301 0.388314017,8.89843857 0.59390857,8.89843857 C1.74363962,8.89843857 2.80203438,8.50001323 3.64721737,7.82032383 C2.5659944,7.79687714 1.65989711,7.07031842 1.34770839,6.0703112 C1.50000586,6.09373384 1.65227989,6.10936497 1.81219458,6.10936497 C2.03300013,6.10936497 2.25382912,6.07810272 2.45940023,6.02344188 C1.33249739,5.78904715 0.487290966,4.77343286 0.487290966,3.54687053 L0.487290966,3.51563233 C0.814690682,3.70313368 1.19543436,3.82031902 1.59895937,3.8359261 C0.936519283,3.38279182 0.5025254,2.60936377 0.5025254,1.73435745 C0.5025254,1.26561609 0.624330564,0.835928501 0.837542334,0.460925795 C2.04821113,1.99217482 3.86802292,2.99215798 5.90861683,3.10155181 C5.87055418,2.91405046 5.84770253,2.71875759 5.84770253,2.52344068 C5.84770253,1.13279963 6.94415994,0 8.30710276,0 C9.01522272,0 9.65481115,0.304686692 10.1040629,0.796874737 C10.6598854,0.68750496 11.1928797,0.47655692 11.6649831,0.187501353 C11.4822167,0.773452098 11.0939027,1.26564014 10.5837601,1.57811835 C11.0786917,1.52345751 11.5583889,1.38280143 12,1.18750857 C11.6650299,1.68748813 11.2462236,2.1327828 10.7665264,2.49217843 Z" id="Path"></path>
                </g>
            </g>
        </g>
    </g>
</svg>