
<svg width="12px" height="10px" viewBox="0 0 12 10" version="1.1" xmlns="http://www.w3.org/2000/svg" xmlns:xlink="http://www.w3.org/1999/xlink">
    <g id="Page-1" stroke="none" stroke-width="1" fill="none" fill-rule="evenodd">
        <g id="home" transform="translate(-737.000000, -437.000000)" fill="#C4C4C4" fill-rule="nonzero">
            <g id="Group-7" transform="translate(608.000000, 433.000000)">
                <g id="weibo-brands" transform="translate(129.000000, 4.000000)">
                    <path d="M9.38557888,3.40328833 C9.54022977,2.75016294 9.11290492,2.12969383 8.62453367,2.26848297 C8.17686002,2.39910805 8.03848816,1.503782 8.48005717,1.37587827 C9.49953217,1.07925049 10.3582516,2.38550127 10.0367405,3.68358798 C9.89836869,4.2605154 9.24720702,3.9774944 9.38557888,3.40328833 L9.38557888,3.40328833 Z M5.16564627,10 C2.60927663,10 0,8.74854994 0,6.68146609 C0,5.6028817 0.673361712,4.35873583 1.83491066,3.18276233 C4.23255933,0.755338771 6.7215928,0.726122038 6.00975328,3.04398285 C5.91355875,3.36293218 6.30555146,3.18276233 6.30555146,3.19006651 C8.21741775,2.37199799 9.68438433,2.78103225 9.04709557,4.44151657 C8.95811563,4.67038098 9.07354906,4.70690189 9.24669922,4.7604659 C12.5100987,5.79035574 10.0835916,10 5.16564627,10 Z M8.20333906,6.65336437 C8.08131114,5.37893501 6.42941461,4.50262183 4.51086447,4.69252782 C2.59457411,4.88929788 1.14831723,6.07220628 1.27034515,7.34663563 C1.39237308,8.62106499 3.0442696,9.49737817 4.96281974,9.30747218 C6.87911011,9.11070212 8.32536698,7.92779372 8.20333906,6.65336437 Z M7.96096615,0.0749708919 C7.32345931,0.211836645 7.5474482,1.14301258 8.16526371,1.01103488 C9.94486772,0.639542125 11.4832529,2.30148342 10.9146658,4.04163371 C10.732521,4.63308929 11.6309379,4.9459253 11.8352355,4.33491747 C12.6204273,1.89577422 10.4789951,-0.452939872 7.96096615,0.0749708919 Z M6.17681487,7.47912651 C5.77750673,8.39198809 4.61694449,8.89076812 3.62918225,8.56844329 C2.67644705,8.26023487 2.27480377,7.31208226 2.68812272,6.45803908 C3.10144167,5.62517053 4.1615931,5.15462333 5.10265263,5.39695514 C6.08340946,5.65105063 6.57612301,6.57802862 6.17681487,7.47912651 Z M4.11191499,6.71954668 C3.82125637,6.57924833 3.43596471,6.72734103 3.2557113,7.05470383 C3.06869839,7.38986099 3.15882509,7.78217673 3.44948371,7.93806378 C3.74464867,8.09395082 4.14345934,7.94585813 4.33047225,7.60290662 C4.51072566,7.26255323 4.41383945,6.86763937 4.11191499,6.71954668 Z M4.89277683,6.68564341 C4.74015908,6.62774642 4.55163128,6.70607764 4.46484864,6.86955149 C4.37806599,7.04324246 4.42295357,7.23055625 4.57557132,7.30888747 C4.72818906,7.37700157 4.92569439,7.29867035 5.01247703,7.12497939 C5.09626716,6.94788271 5.04539458,6.75375751 4.89277683,6.68564341 L4.89277683,6.68564341 Z" id="Shape"></path>
                </g>
            </g>
        </g>
    </g>
</svg>